<svg width="296" height="351" viewBox="0 0 296 351" fill="none" xmlns="http://www.w3.org/2000/svg">
<path fill-rule="evenodd" clip-rule="evenodd" d="M168.82 350.389C163.308 349.188 157.407 347.667 151.221 345.746C151.149 345.631 151.074 345.516 150.997 345.399C150.578 344.755 150.124 344.059 149.875 343.113C149.563 342.178 149.969 341.812 150.514 341.32C151.114 340.779 151.884 340.086 152.055 338.316C152.303 335.838 151.424 334.674 150.319 333.212C149.966 332.745 149.59 332.247 149.221 331.666C148.693 330.774 148.483 329.777 148.275 328.791C147.924 327.128 147.581 325.499 145.732 324.472C142.789 322.836 139.083 316.078 139.846 312.044C140.367 308.83 139.573 306.723 138.842 304.786C138.656 304.293 138.474 303.81 138.319 303.323C137.933 301.907 137.623 299.501 137.321 297.162C137.112 295.542 136.907 293.954 136.684 292.749C136.405 291.243 135.783 290.507 135.097 289.695C134.442 288.921 133.728 288.076 133.196 286.427C133.018 285.874 132.839 285.274 132.653 284.649C131.702 281.452 130.552 277.585 128.181 275.853C125.558 274.036 125.083 271.192 124.421 267.235C124.368 266.917 124.314 266.592 124.257 266.26C123.612 262.48 125.227 260.415 126.532 258.747C126.77 258.443 126.998 258.152 127.2 257.866C128.508 256.013 128.835 251.543 128.835 249.472C128.835 247.51 130.144 244.13 130.689 243.585C130.827 243.446 131.051 243.329 131.32 243.188C132.107 242.774 133.281 242.156 133.85 240.206C134.393 238.343 133.5 235.265 132.665 232.388C132.327 231.223 131.999 230.092 131.779 229.087C131.356 227.155 132.137 225.825 132.826 224.652C133.38 223.707 133.875 222.865 133.632 221.892C133.338 220.862 132.514 219.855 131.628 218.77C130.543 217.443 129.364 216.001 128.944 214.261C128.885 214.014 128.823 213.752 128.758 213.478C127.997 210.244 126.827 205.276 123.712 202.161C120.333 198.782 115.754 191.805 113.683 188.425C112.262 185.978 113.414 185.017 114.572 184.052C115.012 183.685 115.454 183.317 115.754 182.866C116.011 182.455 116.262 182.122 116.483 181.83C117.198 180.883 117.594 180.358 116.844 178.941C116.12 177.583 117.502 174.117 118.428 171.796C118.617 171.323 118.786 170.898 118.915 170.548C119.024 170.439 119.133 170.221 119.133 170.112C119.678 168.476 119.133 166.841 117.498 165.86C116.678 165.423 115.94 164.601 115.216 163.795C114.496 162.993 113.789 162.207 113.029 161.827C112.014 161.319 110.276 161.824 108.584 162.315C107.732 162.563 106.892 162.807 106.161 162.917C103.872 163.244 101.147 161.609 100.383 158.992C99.6204 156.376 96.3501 153.651 93.7338 153.433C91.1175 153.215 85.2309 153.433 83.1597 156.049C81.3449 158.341 80.116 157.788 78.5929 157.103C78.3777 157.006 78.1566 156.907 77.9271 156.812C76.7364 156.322 74.6906 157.317 72.8018 158.235C71.751 158.746 70.7487 159.234 69.9693 159.428C69.5001 159.54 69.0812 159.675 68.6846 159.802C67.1462 160.297 65.942 160.684 63.4286 159.21C60.2673 157.357 50.2383 158.665 48.058 159.755C45.7688 160.955 41.8444 162.917 39.6642 160.737L39.4998 160.58C37.2193 158.407 33.9987 155.338 29.6351 152.997C26.5061 151.318 24.1251 149.105 21.8936 147.03C20.9377 146.142 20.0091 145.279 19.061 144.494C17.3717 143.154 17.7991 142.001 18.2806 140.702C18.7002 139.57 19.1608 138.328 18.2979 136.754C16.4447 133.375 14.8096 134.138 14.8096 134.138C14.8096 134.138 13.2834 130.431 11.4302 130.104C10.306 129.84 10.3452 128.693 10.3796 127.685C10.4019 127.032 10.4222 126.437 10.1221 126.18C9.90405 125.962 9.68603 126.071 9.46801 126.289C9.46801 126.335 9.46801 126.362 9.45964 126.386C9.44832 126.418 9.42168 126.444 9.35899 126.507L9.24998 126.616L9.14097 126.725L9.03196 126.834L8.92295 126.943C8.86844 126.943 8.84119 126.97 8.81394 126.998C8.78668 127.025 8.75943 127.052 8.70493 127.052C8.70493 127.052 8.59591 127.161 8.4869 127.161H8.37789C8.3152 127.224 8.28857 127.25 8.25652 127.262C8.23283 127.27 8.20619 127.27 8.15987 127.27H8.05086H7.83283H7.72382H7.28778C7.06976 127.27 6.96074 127.27 6.85173 127.161C6.74272 127.161 6.63371 127.052 6.5247 126.943C4.78052 125.526 4.01744 120.402 4.12645 118.004C4.34447 115.279 4.34447 113.426 1.7282 111.354C-0.250151 109.788 0.763441 109.095 3.11929 107.483C3.87894 106.963 4.77815 106.348 5.76162 105.577C9.03798 103.076 8.08633 98.9394 7.16763 94.9457C6.92478 93.8899 6.68424 92.8442 6.5247 91.8414C5.98316 88.3601 6.10045 88.2278 6.56487 87.7041C6.75486 87.4899 7.00294 87.2102 7.28778 86.6089C8.21544 84.6505 7.29137 83.6667 5.89784 82.183C5.81757 82.0976 5.73573 82.0104 5.65261 81.9214C4.12645 80.2862 5.65261 74.7266 8.59591 72.6554C10.7457 71.1966 10.3539 69.9542 9.93428 68.6233C9.75811 68.0646 9.57702 67.4902 9.57702 66.8778C9.57702 65.8254 10.2525 65.5892 11.0887 65.2968C11.8981 65.0138 12.858 64.6781 13.5014 63.4985C14.0322 62.5254 14.1681 61.319 14.3025 60.1269C14.4992 58.3809 14.6925 56.6656 16.1177 55.7587L16.1608 55.7313C18.5407 54.2168 20.5872 52.9146 20.5872 51.2892C20.5872 49.654 21.3502 47.0378 25.0566 47.0378C27.8257 47.0378 31.325 43.752 33.9179 41.3173C34.7955 40.4932 35.5693 39.7666 36.1758 39.2979C38.057 37.8443 37.5906 35.9211 36.9338 33.2127C36.7532 32.4683 36.5583 31.6646 36.3938 30.7951C35.6307 26.7616 43.4795 20.1119 45.8778 18.5858C48.276 17.1686 52.2005 13.6803 52.2005 10.846C52.2005 8.1207 55.6888 6.37652 57.215 8.44773C58.2685 9.90645 59.9245 10.2807 63.1234 11.0038C64.2276 11.2534 65.5155 11.5445 67.026 11.9361C71.0537 12.9803 71.1008 12.6977 71.2177 11.996C71.2717 11.6722 71.3406 11.2591 71.8225 10.846C71.883 10.7984 71.9425 10.7516 72.001 10.7054C73.4205 9.58722 74.3245 8.87514 76.837 8.66576C79.4533 8.44773 82.6146 7.1396 83.7047 5.83146C84.7949 4.52332 88.5012 3.97827 91.2265 3.86926C91.623 3.83622 92.137 3.80068 92.7312 3.75961C96.0582 3.5296 101.896 3.12599 103.654 2.01606C105.046 1.13701 106.831 2.07931 108.746 3.08978C109.681 3.58302 110.646 4.0925 111.612 4.41431C113.49 4.97076 114.436 3.75197 115.441 2.457C116.011 1.72244 116.6 0.963368 117.389 0.489904C118.653 -0.268462 118.818 0.108928 119.201 0.984882C119.478 1.6199 119.87 2.51693 120.878 3.43321C122.888 5.18179 122.305 5.73834 121.32 6.67749C121.077 6.90933 120.81 7.16448 120.551 7.46663C119.857 8.34959 120.185 8.64873 121.007 9.39847C121.605 9.94462 122.466 10.7299 123.385 12.1541C125.028 14.5015 123.358 15.0517 121.881 15.538C121.3 15.7293 120.749 15.9107 120.442 16.1875C119.351 17.0596 120.66 18.8038 124.366 19.1308C126.533 19.3858 126.986 20.6096 127.402 21.7347C127.698 22.534 127.975 23.2834 128.835 23.6003C130.159 24.1149 131.135 23.7867 132.132 23.4515C132.613 23.2897 133.099 23.1262 133.632 23.0553C135.267 22.8372 138.755 24.1454 139.519 25.6715C140.282 27.1977 142.353 31.2311 143.443 31.4491C143.585 31.4774 143.82 31.5113 144.128 31.5556C146.195 31.8528 151.551 32.6227 154.017 35.3735C156.093 37.7816 157.347 36.3313 158.645 34.8289C159.052 34.359 159.462 33.884 159.904 33.5203C161.346 32.4172 160.675 31.3802 159.947 30.2549C159.74 29.9346 159.528 29.6071 159.359 29.2689C158.766 28.0831 160.016 26.5024 161.012 25.2427C161.297 24.8812 161.562 24.5461 161.757 24.2544C162.629 22.9462 167.862 21.5291 171.023 21.8561C172.979 22.126 173.307 23.231 173.661 24.4216C173.879 25.1548 174.106 25.9204 174.729 26.5436C176.364 28.2878 178.763 27.5247 178.763 27.5247C181.238 26.9657 181.666 27.9276 182.104 28.9107C182.264 29.2696 182.425 29.6314 182.687 29.923C183.273 30.5742 184.015 30.3306 185.075 29.9824C185.789 29.7478 186.648 29.4657 187.702 29.3779C189.762 29.2062 190.605 29.6429 192.521 30.6348C193.038 30.9025 193.633 31.2106 194.351 31.5581C197.029 32.854 198.133 32.0959 199.778 30.9659C200.208 30.67 200.676 30.3487 201.219 30.032C203.726 28.5058 206.015 30.7951 206.561 33.7384C207.053 36.3978 209.86 37.7223 211.2 38.3551C211.344 38.4226 211.47 38.4823 211.575 38.5349C212.665 39.0799 213.428 40.2791 214.191 41.9142C214.954 43.6584 216.045 45.5116 217.898 47.1468C219.177 48.2842 219.437 49.2826 219.826 50.7769C220.033 51.5739 220.277 52.5119 220.732 53.6874C221.608 55.9496 223.07 58.2606 224.169 59.9992C224.712 60.8578 225.167 61.5768 225.419 62.0813C226.183 63.4985 226.619 65.2426 226.401 67.4229C226.292 69.6031 228.472 71.4563 230.325 72.2194C232.178 72.9824 233.704 75.3807 234.031 78.8691C234.358 82.3574 237.738 91.0783 237.738 91.0783C237.738 91.0783 239.7 92.4955 241.226 95.3298C242.286 97.2984 242.61 99.4774 242.818 100.881C242.91 101.497 242.979 101.964 243.079 102.197L243.105 102.242C243.619 103.144 246.511 108.212 249.402 109.283C252.345 110.373 253.653 112.336 254.198 115.17C254.485 116.6 255.941 117.85 257.482 119.172C258.877 120.369 260.341 121.625 261.066 123.128C262.033 125.13 260.944 125.47 260.21 125.7C259.785 125.833 259.478 125.929 259.758 126.289C259.979 126.541 260.408 126.766 260.932 127.039C262.22 127.713 264.075 128.682 264.773 131.085C265.1 132.176 265.645 132.612 266.19 132.612C266.244 132.612 266.326 132.584 266.408 132.557C266.49 132.53 266.571 132.503 266.626 132.503C266.68 132.448 266.762 132.421 266.844 132.394C266.926 132.366 267.007 132.339 267.062 132.285L268.043 131.631C268.424 131.358 268.806 131.031 269.188 130.704C269.569 130.377 269.951 130.05 270.332 129.777L270.441 129.668C271.766 128.722 272.187 128.926 272.775 129.21C272.864 129.253 272.957 129.298 273.057 129.341C273.112 129.341 273.166 129.369 273.221 129.396C273.275 129.423 273.33 129.45 273.384 129.45C273.493 129.559 273.603 129.559 273.712 129.559H273.821H274.148H274.257H274.802C276.071 129.401 277.033 129.088 278.085 128.746C279.201 128.383 280.419 127.987 282.214 127.706C283.373 127.525 284.532 127.512 285.639 127.5C287.864 127.476 289.879 127.454 291.262 126.071C293.334 124 295.514 124.218 295.514 124.218C295.514 124.218 295.732 128.796 295.514 130.649C295.296 132.721 294.206 137.19 291.044 143.84C290.935 144.058 290.826 144.276 290.717 144.603C290.717 144.657 290.69 144.712 290.663 144.766C290.636 144.821 290.608 144.875 290.608 144.93C290.499 145.039 290.39 145.257 290.281 145.475C290.227 145.53 290.199 145.584 290.172 145.639C290.145 145.693 290.118 145.748 290.063 145.802L289.736 146.456C289.627 146.565 289.518 146.783 289.409 147.001L289.409 147.001C289.355 147.11 289.3 147.246 289.246 147.383C289.191 147.519 289.137 147.655 289.082 147.764C289.082 147.924 289.024 148.025 288.95 148.153C288.923 148.2 288.893 148.251 288.864 148.309L288.537 148.963C288.537 149.123 288.479 149.224 288.405 149.352C288.377 149.399 288.348 149.45 288.319 149.508C288.265 149.617 288.21 149.754 288.156 149.89C288.101 150.026 288.047 150.163 287.992 150.272C287.938 150.326 287.91 150.408 287.883 150.49C287.856 150.571 287.829 150.653 287.774 150.708C287.704 150.919 287.588 151.13 287.456 151.37C287.383 151.502 287.306 151.643 287.229 151.798C287.229 151.907 287.12 152.125 287.011 152.234C286.956 152.343 286.875 152.479 286.793 152.615C286.711 152.752 286.629 152.888 286.575 152.997C286.575 153.156 286.516 153.258 286.442 153.386C286.415 153.433 286.386 153.483 286.357 153.542C286.302 153.705 286.221 153.842 286.139 153.978C286.057 154.114 285.975 154.25 285.921 154.414C285.879 154.497 285.853 154.565 285.831 154.622C285.796 154.715 285.77 154.783 285.703 154.85L285.049 156.158C284.994 156.213 284.967 156.267 284.94 156.322C284.912 156.376 284.885 156.431 284.831 156.485C284.722 156.649 284.64 156.812 284.558 156.976C284.476 157.139 284.395 157.303 284.286 157.466C284.231 157.521 284.204 157.603 284.177 157.684C284.149 157.766 284.122 157.848 284.068 157.902C283.959 158.066 283.877 158.229 283.795 158.393C283.713 158.556 283.632 158.72 283.523 158.883C283.468 158.938 283.441 158.992 283.414 159.047C283.386 159.101 283.359 159.156 283.305 159.21C282.978 159.646 282.759 160.083 282.541 160.519L282.432 160.628C282.323 160.791 282.214 160.982 282.105 161.173C281.996 161.363 281.887 161.554 281.778 161.718C281.724 161.772 281.697 161.827 281.669 161.881C281.642 161.936 281.615 161.99 281.56 162.045C281.451 162.208 281.37 162.345 281.288 162.481C281.206 162.617 281.124 162.753 281.015 162.917C280.961 162.971 280.934 163.026 280.906 163.08C280.879 163.135 280.852 163.189 280.797 163.244L280.797 163.245C280.579 163.68 280.361 164.116 280.143 164.443C278.072 167.822 276.219 170.33 275.02 170.875C272.738 171.939 268.601 176.027 266.121 178.477C265.047 179.539 264.283 180.293 264.119 180.359C263.875 180.456 262.848 182.099 261.67 183.983C260.211 186.317 258.52 189.022 257.796 189.625C256.488 190.715 256.27 190.715 254.089 190.715C251.8 190.715 250.71 193.222 251.473 196.601C251.923 198.53 250.705 199.397 249.093 200.544C247.971 201.342 246.66 202.276 245.587 203.796C242.97 207.502 243.842 212.081 245.369 214.152C246.786 216.223 247.222 216.986 247.004 218.077C246.944 218.728 246.563 219.767 246.175 220.824C245.849 221.712 245.518 222.613 245.369 223.309C245.113 224.203 245.157 225.77 245.193 227.069C245.219 227.987 245.241 228.771 245.151 229.087C245.062 229.396 245.781 230.011 246.651 230.755C247.928 231.846 249.532 233.218 249.402 234.319C249.31 235.097 249.392 236.298 249.477 237.551C249.594 239.282 249.718 241.111 249.402 242.059C249.062 243.08 249.868 246.224 250.655 249.291C251.129 251.138 251.595 252.957 251.8 254.268C252.454 257.757 247.222 263.534 245.914 264.079C245.738 264.152 245.467 264.263 245.125 264.402C242.918 265.299 237.78 267.387 236.648 268.331C236.22 268.688 235.955 269.184 235.636 269.783C234.98 271.014 234.095 272.675 231.088 274.435C226.619 276.943 225.529 278.469 225.529 278.469C225.529 278.469 226.074 284.355 226.619 286.209C227.164 288.062 228.254 293.403 227.491 294.93C226.931 296.049 227.075 297.638 227.192 298.922C227.234 299.388 227.273 299.814 227.273 300.162C227.273 301.293 221.895 303.402 219.593 304.305C219.232 304.446 218.947 304.558 218.77 304.632C217.462 305.177 214.191 307.575 215.826 310.409C217.086 312.377 215.503 316.107 214.444 318.603C214.037 319.564 213.707 320.341 213.646 320.765C213.532 321.567 212.364 322.128 211.17 322.702C210.093 323.22 208.994 323.747 208.632 324.472C207.869 325.998 203.617 334.065 201.001 335.591C199.597 336.41 197.786 338.954 196.004 341.457C194.465 343.619 192.948 345.75 191.735 346.71C189.912 348.153 187.878 347.797 186.517 347.559C185.924 347.455 185.459 347.374 185.194 347.473L185.155 347.49C184.145 347.94 181.545 349.097 177.564 348.236C174.703 347.559 173.246 347.973 172.116 348.294C171.609 348.438 171.168 348.563 170.696 348.563C169.802 348.563 169.319 349.461 168.92 350.205C168.886 350.267 168.853 350.329 168.82 350.389Z" fill="#AEB520"/>
<path d="M95.112 106.872H79.712L76.676 114H70.78L84.64 83.2H90.272L104.176 114H98.192L95.112 106.872ZM93.22 102.384L87.412 88.92L81.648 102.384H93.22ZM117.113 85.488C114.796 85.488 113.637 86.7493 113.637 89.272V90.68H120.105V95.08H113.813V114H108.313V95.08H104.441V90.68H108.313V89.184C108.313 86.6613 109.046 84.6813 110.513 83.244C111.98 81.7773 114.048 81.044 116.717 81.044C118.829 81.044 120.486 81.4693 121.689 82.32L120.149 86.456C119.21 85.8107 118.198 85.488 117.113 85.488ZM132.567 93.936C134.151 91.472 136.937 90.24 140.927 90.24V95.476C140.457 95.388 140.032 95.344 139.651 95.344C137.509 95.344 135.837 95.9747 134.635 97.236C133.432 98.468 132.831 100.257 132.831 102.604V114H127.331V90.504H132.567V93.936ZM145.592 90.504H151.092V114H145.592V90.504ZM148.364 86.632C147.367 86.632 146.531 86.324 145.856 85.708C145.182 85.0627 144.844 84.2707 144.844 83.332C144.844 82.3933 145.182 81.616 145.856 81C146.531 80.3547 147.367 80.032 148.364 80.032C149.362 80.032 150.198 80.34 150.872 80.956C151.547 81.5427 151.884 82.2907 151.884 83.2C151.884 84.168 151.547 84.9893 150.872 85.664C150.227 86.3093 149.391 86.632 148.364 86.632ZM169.091 114.308C166.656 114.308 164.471 113.795 162.535 112.768C160.599 111.741 159.088 110.319 158.003 108.5C156.918 106.652 156.375 104.569 156.375 102.252C156.375 99.9347 156.918 97.8667 158.003 96.048C159.088 94.2293 160.584 92.8067 162.491 91.78C164.427 90.7533 166.627 90.24 169.091 90.24C171.408 90.24 173.432 90.7093 175.163 91.648C176.923 92.5867 178.243 93.936 179.123 95.696L174.899 98.16C174.224 97.0747 173.374 96.268 172.347 95.74C171.35 95.1827 170.25 94.904 169.047 94.904C166.994 94.904 165.292 95.5787 163.943 96.928C162.594 98.248 161.919 100.023 161.919 102.252C161.919 104.481 162.579 106.271 163.899 107.62C165.248 108.94 166.964 109.6 169.047 109.6C170.25 109.6 171.35 109.336 172.347 108.808C173.374 108.251 174.224 107.429 174.899 106.344L179.123 108.808C178.214 110.568 176.879 111.932 175.119 112.9C173.388 113.839 171.379 114.308 169.091 114.308ZM192.854 90.24C196.315 90.24 198.955 91.076 200.774 92.748C202.622 94.3907 203.546 96.884 203.546 100.228V114H198.354V111.14C197.679 112.167 196.711 112.959 195.45 113.516C194.218 114.044 192.722 114.308 190.962 114.308C189.202 114.308 187.662 114.015 186.342 113.428C185.022 112.812 183.995 111.976 183.262 110.92C182.558 109.835 182.206 108.617 182.206 107.268C182.206 105.156 182.983 103.469 184.538 102.208C186.122 100.917 188.6 100.272 191.974 100.272H198.046V99.92C198.046 98.2773 197.547 97.016 196.55 96.136C195.582 95.256 194.13 94.816 192.194 94.816C190.874 94.816 189.568 95.0213 188.278 95.432C187.016 95.8427 185.946 96.4147 185.066 97.148L182.91 93.144C184.142 92.2053 185.623 91.4867 187.354 90.988C189.084 90.4893 190.918 90.24 192.854 90.24ZM192.106 110.304C193.484 110.304 194.702 109.996 195.758 109.38C196.843 108.735 197.606 107.825 198.046 106.652V103.924H192.37C189.202 103.924 187.618 104.965 187.618 107.048C187.618 108.045 188.014 108.837 188.806 109.424C189.598 110.011 190.698 110.304 192.106 110.304Z" fill="white"/>
</svg>
