<svg width="304" height="359" viewBox="0 0 304 359" fill="none" xmlns="http://www.w3.org/2000/svg">
<g filter="url(#filter0_d)">
<path fill-rule="evenodd" clip-rule="evenodd" d="M172.82 350.389C167.308 349.188 161.407 347.667 155.221 345.746C155.149 345.631 155.074 345.516 154.997 345.399C154.578 344.755 154.124 344.059 153.875 343.113C153.563 342.178 153.969 341.812 154.514 341.32C155.114 340.779 155.884 340.086 156.055 338.316C156.303 335.838 155.424 334.674 154.319 333.212C153.966 332.745 153.59 332.247 153.221 331.666C152.693 330.774 152.483 329.777 152.275 328.791C151.924 327.128 151.581 325.499 149.732 324.472C146.789 322.836 143.083 316.078 143.846 312.044C144.367 308.83 143.573 306.723 142.842 304.786C142.656 304.293 142.474 303.81 142.319 303.323C141.933 301.907 141.623 299.501 141.321 297.162C141.112 295.542 140.907 293.954 140.684 292.749C140.405 291.243 139.783 290.507 139.097 289.695C138.442 288.921 137.728 288.076 137.196 286.427C137.018 285.874 136.839 285.274 136.653 284.649C135.702 281.452 134.552 277.585 132.181 275.853C129.558 274.036 129.083 271.192 128.421 267.235C128.368 266.917 128.314 266.592 128.257 266.26C127.612 262.48 129.227 260.415 130.532 258.747C130.77 258.443 130.998 258.152 131.2 257.866C132.508 256.013 132.835 251.543 132.835 249.472C132.835 247.51 134.144 244.13 134.689 243.585C134.827 243.446 135.051 243.329 135.32 243.188C136.107 242.774 137.281 242.156 137.85 240.206C138.393 238.343 137.5 235.265 136.665 232.388C136.327 231.223 135.999 230.092 135.779 229.087C135.356 227.155 136.137 225.825 136.826 224.652C137.38 223.707 137.875 222.865 137.632 221.892C137.338 220.862 136.514 219.855 135.628 218.77C134.543 217.443 133.364 216.001 132.944 214.261C132.885 214.014 132.823 213.752 132.758 213.478C131.997 210.244 130.827 205.276 127.712 202.161C124.333 198.782 119.754 191.805 117.683 188.425C116.262 185.978 117.414 185.017 118.572 184.052C119.012 183.685 119.454 183.317 119.754 182.866C120.011 182.455 120.262 182.122 120.483 181.83C121.198 180.883 121.594 180.358 120.844 178.941C120.12 177.583 121.502 174.117 122.428 171.796C122.617 171.323 122.786 170.898 122.915 170.548C123.024 170.439 123.133 170.221 123.133 170.112C123.678 168.476 123.133 166.841 121.498 165.86C120.678 165.423 119.94 164.601 119.216 163.795C118.496 162.993 117.789 162.207 117.029 161.827C116.014 161.319 114.276 161.824 112.584 162.315C111.732 162.563 110.892 162.807 110.161 162.917C107.872 163.244 105.147 161.609 104.383 158.992C103.62 156.376 100.35 153.651 97.7338 153.433C95.1175 153.215 89.2309 153.433 87.1597 156.049C85.3449 158.341 84.116 157.788 82.5929 157.103C82.3777 157.006 82.1566 156.907 81.9271 156.812C80.7364 156.322 78.6906 157.317 76.8018 158.235C75.751 158.746 74.7487 159.234 73.9693 159.428C73.5001 159.54 73.0812 159.675 72.6846 159.802C71.1462 160.297 69.942 160.684 67.4286 159.21C64.2673 157.357 54.2383 158.665 52.058 159.755C49.7688 160.955 45.8444 162.917 43.6642 160.737L43.4998 160.58C41.2193 158.407 37.9987 155.338 33.6351 152.997C30.5061 151.318 28.1251 149.105 25.8936 147.03C24.9377 146.142 24.0091 145.279 23.061 144.494C21.3717 143.154 21.7991 142.001 22.2806 140.702C22.7002 139.57 23.1608 138.328 22.2979 136.754C20.4447 133.375 18.8096 134.138 18.8096 134.138C18.8096 134.138 17.2834 130.431 15.4302 130.104C14.306 129.84 14.3452 128.693 14.3796 127.685C14.4019 127.032 14.4222 126.437 14.1221 126.18C13.904 125.962 13.686 126.071 13.468 126.289C13.468 126.335 13.468 126.362 13.4596 126.386C13.4483 126.418 13.4217 126.444 13.359 126.507L13.25 126.616L13.141 126.725L13.032 126.834L12.9229 126.943C12.8684 126.943 12.8412 126.97 12.8139 126.998C12.7867 127.025 12.7594 127.052 12.7049 127.052C12.7049 127.052 12.5959 127.161 12.4869 127.161H12.3779C12.3152 127.224 12.2886 127.25 12.2565 127.262C12.2328 127.27 12.2062 127.27 12.1599 127.27H12.0509H11.8328H11.7238H11.2878C11.0698 127.27 10.9607 127.27 10.8517 127.161C10.7427 127.161 10.6337 127.052 10.5247 126.943C8.78052 125.526 8.01744 120.402 8.12645 118.004C8.34447 115.279 8.34447 113.426 5.7282 111.354C3.74985 109.788 4.76344 109.095 7.11929 107.483C7.87894 106.963 8.77815 106.348 9.76162 105.577C13.038 103.076 12.0863 98.9394 11.1676 94.9457C10.9248 93.8899 10.6842 92.8442 10.5247 91.8414C9.98316 88.3601 10.1005 88.2278 10.5649 87.7041C10.7549 87.4899 11.0029 87.2102 11.2878 86.6089C12.2154 84.6505 11.2914 83.6667 9.89784 82.183C9.81757 82.0976 9.73573 82.0104 9.65261 81.9214C8.12645 80.2862 9.65261 74.7266 12.5959 72.6554C14.7457 71.1966 14.3539 69.9542 13.9343 68.6233C13.7581 68.0646 13.577 67.4902 13.577 66.8778C13.577 65.8254 14.2525 65.5892 15.0887 65.2968C15.8981 65.0138 16.858 64.6781 17.5014 63.4985C18.0322 62.5254 18.1681 61.319 18.3025 60.1269C18.4992 58.3809 18.6925 56.6656 20.1177 55.7587L20.1608 55.7313C22.5407 54.2168 24.5872 52.9146 24.5872 51.2892C24.5872 49.654 25.3502 47.0378 29.0566 47.0378C31.8257 47.0378 35.325 43.752 37.9179 41.3173C38.7955 40.4932 39.5693 39.7666 40.1758 39.2979C42.057 37.8443 41.5906 35.9211 40.9338 33.2127C40.7532 32.4683 40.5583 31.6646 40.3938 30.7951C39.6307 26.7616 47.4795 20.1119 49.8778 18.5858C52.276 17.1686 56.2005 13.6803 56.2005 10.846C56.2005 8.1207 59.6888 6.37652 61.215 8.44773C62.2685 9.90645 63.9245 10.2807 67.1234 11.0038C68.2276 11.2534 69.5155 11.5445 71.026 11.9361C75.0537 12.9803 75.1008 12.6977 75.2177 11.996C75.2717 11.6722 75.3406 11.2591 75.8225 10.846C75.883 10.7984 75.9425 10.7516 76.001 10.7054C77.4205 9.58722 78.3245 8.87514 80.837 8.66576C83.4533 8.44773 86.6146 7.1396 87.7047 5.83146C88.7949 4.52332 92.5012 3.97827 95.2265 3.86926C95.623 3.83622 96.137 3.80068 96.7312 3.75961C100.058 3.5296 105.896 3.12599 107.654 2.01606C109.046 1.13701 110.831 2.07931 112.746 3.08978C113.681 3.58302 114.646 4.0925 115.612 4.41431C117.49 4.97076 118.436 3.75197 119.441 2.457C120.011 1.72244 120.6 0.963368 121.389 0.489904C122.653 -0.268462 122.818 0.108928 123.201 0.984882C123.478 1.6199 123.87 2.51693 124.878 3.43321C126.888 5.18179 126.305 5.73834 125.32 6.67749C125.077 6.90933 124.81 7.16448 124.551 7.46663C123.857 8.34959 124.185 8.64873 125.007 9.39847C125.605 9.94462 126.466 10.7299 127.385 12.1541C129.028 14.5015 127.358 15.0517 125.881 15.538C125.3 15.7293 124.749 15.9107 124.442 16.1875C123.351 17.0596 124.66 18.8038 128.366 19.1308C130.533 19.3858 130.986 20.6096 131.402 21.7347C131.698 22.534 131.975 23.2834 132.835 23.6003C134.159 24.1149 135.135 23.7867 136.132 23.4515C136.613 23.2897 137.099 23.1262 137.632 23.0553C139.267 22.8372 142.755 24.1454 143.519 25.6715C144.282 27.1977 146.353 31.2311 147.443 31.4491C147.585 31.4774 147.82 31.5113 148.128 31.5556C150.195 31.8528 155.551 32.6227 158.017 35.3735C160.093 37.7816 161.347 36.3313 162.645 34.8289C163.052 34.359 163.462 33.884 163.904 33.5203C165.346 32.4172 164.675 31.3802 163.947 30.2549C163.74 29.9346 163.528 29.6071 163.359 29.2689C162.766 28.0831 164.016 26.5024 165.012 25.2427C165.297 24.8812 165.562 24.5461 165.757 24.2544C166.629 22.9462 171.862 21.5291 175.023 21.8561C176.979 22.126 177.307 23.231 177.661 24.4216C177.879 25.1548 178.106 25.9204 178.729 26.5436C180.364 28.2878 182.763 27.5247 182.763 27.5247C185.238 26.9657 185.666 27.9276 186.104 28.9107C186.264 29.2696 186.425 29.6314 186.687 29.923C187.273 30.5742 188.015 30.3306 189.075 29.9824C189.789 29.7478 190.648 29.4657 191.702 29.3779C193.762 29.2062 194.605 29.6429 196.521 30.6348C197.038 30.9025 197.633 31.2106 198.351 31.5581C201.029 32.854 202.133 32.0959 203.778 30.9659C204.208 30.67 204.676 30.3487 205.219 30.032C207.726 28.5058 210.015 30.7951 210.561 33.7384C211.053 36.3978 213.86 37.7223 215.2 38.3551C215.344 38.4226 215.47 38.4823 215.575 38.5349C216.665 39.0799 217.428 40.2791 218.191 41.9142C218.954 43.6584 220.045 45.5116 221.898 47.1468C223.177 48.2842 223.437 49.2826 223.826 50.7769C224.033 51.5739 224.277 52.5119 224.732 53.6874C225.608 55.9496 227.07 58.2606 228.169 59.9992C228.712 60.8578 229.167 61.5768 229.419 62.0813C230.183 63.4985 230.619 65.2426 230.401 67.4229C230.292 69.6031 232.472 71.4563 234.325 72.2194C236.178 72.9824 237.704 75.3807 238.031 78.8691C238.358 82.3574 241.738 91.0783 241.738 91.0783C241.738 91.0783 243.7 92.4955 245.226 95.3298C246.286 97.2984 246.61 99.4774 246.818 100.881C246.91 101.497 246.979 101.964 247.079 102.197L247.105 102.242C247.619 103.144 250.511 108.212 253.402 109.283C256.345 110.373 257.653 112.336 258.198 115.17C258.485 116.6 259.941 117.85 261.482 119.172C262.877 120.369 264.341 121.625 265.066 123.128C266.033 125.13 264.944 125.47 264.21 125.7C263.785 125.833 263.478 125.929 263.758 126.289C263.979 126.541 264.408 126.766 264.932 127.039C266.22 127.713 268.075 128.682 268.773 131.085C269.1 132.176 269.645 132.612 270.19 132.612C270.244 132.612 270.326 132.584 270.408 132.557C270.49 132.53 270.571 132.503 270.626 132.503C270.68 132.448 270.762 132.421 270.844 132.394C270.926 132.366 271.007 132.339 271.062 132.285L272.043 131.631C272.424 131.358 272.806 131.031 273.188 130.704C273.569 130.377 273.951 130.05 274.332 129.777L274.441 129.668C275.766 128.722 276.187 128.926 276.775 129.21C276.864 129.253 276.957 129.298 277.057 129.341C277.112 129.341 277.166 129.369 277.221 129.396C277.275 129.423 277.33 129.45 277.384 129.45C277.493 129.559 277.603 129.559 277.712 129.559H277.821H278.148H278.257H278.802C280.071 129.401 281.033 129.088 282.085 128.746C283.201 128.383 284.419 127.987 286.214 127.706C287.373 127.525 288.532 127.512 289.639 127.5C291.864 127.476 293.879 127.454 295.262 126.071C297.334 124 299.514 124.218 299.514 124.218C299.514 124.218 299.732 128.796 299.514 130.649C299.296 132.721 298.206 137.19 295.044 143.84C294.935 144.058 294.826 144.276 294.717 144.603C294.717 144.657 294.69 144.712 294.663 144.766C294.636 144.821 294.608 144.875 294.608 144.93C294.499 145.039 294.39 145.257 294.281 145.475C294.227 145.53 294.199 145.584 294.172 145.639C294.145 145.693 294.118 145.748 294.063 145.802L293.736 146.456C293.627 146.565 293.518 146.783 293.409 147.001L293.409 147.001C293.355 147.11 293.3 147.246 293.246 147.383C293.191 147.519 293.137 147.655 293.082 147.764C293.082 147.924 293.024 148.025 292.95 148.153C292.923 148.2 292.893 148.251 292.864 148.309L292.537 148.963C292.537 149.123 292.479 149.224 292.405 149.352C292.377 149.399 292.348 149.45 292.319 149.508C292.265 149.617 292.21 149.754 292.156 149.89C292.101 150.026 292.047 150.163 291.992 150.272C291.938 150.326 291.91 150.408 291.883 150.49C291.856 150.571 291.829 150.653 291.774 150.708C291.704 150.919 291.588 151.13 291.456 151.37C291.383 151.502 291.306 151.643 291.229 151.798C291.229 151.907 291.12 152.125 291.011 152.234C290.956 152.343 290.875 152.479 290.793 152.615C290.711 152.752 290.629 152.888 290.575 152.997C290.575 153.156 290.516 153.258 290.442 153.386C290.415 153.433 290.386 153.483 290.357 153.542C290.302 153.705 290.221 153.842 290.139 153.978C290.057 154.114 289.975 154.25 289.921 154.414C289.879 154.497 289.853 154.565 289.831 154.622C289.796 154.715 289.77 154.783 289.703 154.85L289.049 156.158C288.994 156.213 288.967 156.267 288.94 156.322C288.912 156.376 288.885 156.431 288.831 156.485C288.722 156.649 288.64 156.812 288.558 156.976C288.476 157.139 288.395 157.303 288.286 157.466C288.231 157.521 288.204 157.603 288.177 157.684C288.149 157.766 288.122 157.848 288.068 157.902C287.959 158.066 287.877 158.229 287.795 158.393C287.713 158.556 287.632 158.72 287.523 158.883C287.468 158.938 287.441 158.992 287.414 159.047C287.386 159.101 287.359 159.156 287.305 159.21C286.978 159.646 286.759 160.083 286.541 160.519L286.432 160.628C286.323 160.791 286.214 160.982 286.105 161.173C285.996 161.363 285.887 161.554 285.778 161.718C285.724 161.772 285.697 161.827 285.669 161.881C285.642 161.936 285.615 161.99 285.56 162.045C285.451 162.208 285.37 162.345 285.288 162.481C285.206 162.617 285.124 162.753 285.015 162.917C284.961 162.971 284.934 163.026 284.906 163.08C284.879 163.135 284.852 163.189 284.797 163.244L284.797 163.245C284.579 163.68 284.361 164.116 284.143 164.443C282.072 167.822 280.219 170.33 279.02 170.875C276.738 171.939 272.601 176.027 270.121 178.477C269.047 179.539 268.283 180.293 268.119 180.359C267.875 180.456 266.848 182.099 265.67 183.983C264.211 186.317 262.52 189.022 261.796 189.625C260.488 190.715 260.27 190.715 258.089 190.715C255.8 190.715 254.71 193.222 255.473 196.601C255.923 198.53 254.705 199.397 253.093 200.544C251.971 201.342 250.66 202.276 249.587 203.796C246.97 207.502 247.842 212.081 249.369 214.152C250.786 216.223 251.222 216.986 251.004 218.077C250.944 218.728 250.563 219.767 250.175 220.824C249.849 221.712 249.518 222.613 249.369 223.309C249.113 224.203 249.157 225.77 249.193 227.069C249.219 227.987 249.241 228.771 249.151 229.087C249.062 229.396 249.781 230.011 250.651 230.755C251.928 231.846 253.532 233.218 253.402 234.319C253.31 235.097 253.392 236.298 253.477 237.551C253.594 239.282 253.718 241.111 253.402 242.059C253.062 243.08 253.868 246.224 254.655 249.291C255.129 251.138 255.595 252.957 255.8 254.268C256.454 257.757 251.222 263.534 249.914 264.079C249.738 264.152 249.467 264.263 249.125 264.402C246.918 265.299 241.78 267.387 240.648 268.331C240.22 268.688 239.955 269.184 239.636 269.783C238.98 271.014 238.095 272.675 235.088 274.435C230.619 276.943 229.529 278.469 229.529 278.469C229.529 278.469 230.074 284.355 230.619 286.209C231.164 288.062 232.254 293.403 231.491 294.93C230.931 296.049 231.075 297.638 231.192 298.922C231.234 299.388 231.273 299.814 231.273 300.162C231.273 301.293 225.895 303.402 223.593 304.305C223.232 304.446 222.947 304.558 222.77 304.632C221.462 305.177 218.191 307.575 219.826 310.409C221.086 312.377 219.503 316.107 218.444 318.603C218.037 319.564 217.707 320.341 217.646 320.765C217.532 321.567 216.364 322.128 215.17 322.702C214.093 323.22 212.994 323.747 212.632 324.472C211.869 325.998 207.617 334.065 205.001 335.591C203.597 336.41 201.786 338.954 200.004 341.457C198.465 343.619 196.948 345.75 195.735 346.71C193.912 348.153 191.878 347.797 190.517 347.559C189.924 347.455 189.459 347.374 189.194 347.473L189.155 347.49C188.145 347.94 185.545 349.097 181.564 348.236C178.703 347.559 177.246 347.973 176.116 348.294C175.609 348.438 175.168 348.563 174.696 348.563C173.802 348.563 173.319 349.461 172.92 350.205C172.886 350.267 172.853 350.329 172.82 350.389Z" fill="#AEB520"/>
</g>
<path d="M99.112 106.872H83.712L80.676 114H74.78L88.64 83.2H94.272L108.176 114H102.192L99.112 106.872ZM97.22 102.384L91.412 88.92L85.648 102.384H97.22ZM121.113 85.488C118.796 85.488 117.637 86.7493 117.637 89.272V90.68H124.105V95.08H117.813V114H112.313V95.08H108.441V90.68H112.313V89.184C112.313 86.6613 113.046 84.6813 114.513 83.244C115.98 81.7773 118.048 81.044 120.717 81.044C122.829 81.044 124.486 81.4693 125.689 82.32L124.149 86.456C123.21 85.8107 122.198 85.488 121.113 85.488ZM136.567 93.936C138.151 91.472 140.937 90.24 144.927 90.24V95.476C144.457 95.388 144.032 95.344 143.651 95.344C141.509 95.344 139.837 95.9747 138.635 97.236C137.432 98.468 136.831 100.257 136.831 102.604V114H131.331V90.504H136.567V93.936ZM149.592 90.504H155.092V114H149.592V90.504ZM152.364 86.632C151.367 86.632 150.531 86.324 149.856 85.708C149.182 85.0627 148.844 84.2707 148.844 83.332C148.844 82.3933 149.182 81.616 149.856 81C150.531 80.3547 151.367 80.032 152.364 80.032C153.362 80.032 154.198 80.34 154.872 80.956C155.547 81.5427 155.884 82.2907 155.884 83.2C155.884 84.168 155.547 84.9893 154.872 85.664C154.227 86.3093 153.391 86.632 152.364 86.632ZM173.091 114.308C170.656 114.308 168.471 113.795 166.535 112.768C164.599 111.741 163.088 110.319 162.003 108.5C160.918 106.652 160.375 104.569 160.375 102.252C160.375 99.9347 160.918 97.8667 162.003 96.048C163.088 94.2293 164.584 92.8067 166.491 91.78C168.427 90.7533 170.627 90.24 173.091 90.24C175.408 90.24 177.432 90.7093 179.163 91.648C180.923 92.5867 182.243 93.936 183.123 95.696L178.899 98.16C178.224 97.0747 177.374 96.268 176.347 95.74C175.35 95.1827 174.25 94.904 173.047 94.904C170.994 94.904 169.292 95.5787 167.943 96.928C166.594 98.248 165.919 100.023 165.919 102.252C165.919 104.481 166.579 106.271 167.899 107.62C169.248 108.94 170.964 109.6 173.047 109.6C174.25 109.6 175.35 109.336 176.347 108.808C177.374 108.251 178.224 107.429 178.899 106.344L183.123 108.808C182.214 110.568 180.879 111.932 179.119 112.9C177.388 113.839 175.379 114.308 173.091 114.308ZM196.854 90.24C200.315 90.24 202.955 91.076 204.774 92.748C206.622 94.3907 207.546 96.884 207.546 100.228V114H202.354V111.14C201.679 112.167 200.711 112.959 199.45 113.516C198.218 114.044 196.722 114.308 194.962 114.308C193.202 114.308 191.662 114.015 190.342 113.428C189.022 112.812 187.995 111.976 187.262 110.92C186.558 109.835 186.206 108.617 186.206 107.268C186.206 105.156 186.983 103.469 188.538 102.208C190.122 100.917 192.6 100.272 195.974 100.272H202.046V99.92C202.046 98.2773 201.547 97.016 200.55 96.136C199.582 95.256 198.13 94.816 196.194 94.816C194.874 94.816 193.568 95.0213 192.278 95.432C191.016 95.8427 189.946 96.4147 189.066 97.148L186.91 93.144C188.142 92.2053 189.623 91.4867 191.354 90.988C193.084 90.4893 194.918 90.24 196.854 90.24ZM196.106 110.304C197.484 110.304 198.702 109.996 199.758 109.38C200.843 108.735 201.606 107.825 202.046 106.652V103.924H196.37C193.202 103.924 191.618 104.965 191.618 107.048C191.618 108.045 192.014 108.837 192.806 109.424C193.598 110.011 194.698 110.304 196.106 110.304Z" fill="white"/>
<defs>
<filter id="filter0_d" x="0.677429" y="0.0822754" width="302.933" height="358.306" filterUnits="userSpaceOnUse" color-interpolation-filters="sRGB">
<feFlood flood-opacity="0" result="BackgroundImageFix"/>
<feColorMatrix in="SourceAlpha" type="matrix" values="0 0 0 0 0 0 0 0 0 0 0 0 0 0 0 0 0 0 127 0"/>
<feOffset dy="4"/>
<feGaussianBlur stdDeviation="2"/>
<feColorMatrix type="matrix" values="0 0 0 0 0 0 0 0 0 0 0 0 0 0 0 0 0 0 0.25 0"/>
<feBlend mode="normal" in2="BackgroundImageFix" result="effect1_dropShadow"/>
<feBlend mode="normal" in="SourceGraphic" in2="effect1_dropShadow" result="shape"/>
</filter>
</defs>
</svg>
