<svg width="171" height="187" viewBox="0 0 171 187" fill="none" xmlns="http://www.w3.org/2000/svg">
<g filter="url(#filter0_d)">
<path fill-rule="evenodd" clip-rule="evenodd" d="M157.898 37.8854C161.18 47.6948 164.13 57.7492 166.667 68.0181C157.176 78.6789 156.741 81.9843 155.769 89.3839C155.464 91.704 155.106 94.4265 154.399 97.9044C154.18 98.9851 153.974 100.034 153.774 101.053C150.964 115.364 149.339 123.636 128.226 128.144C114.595 130.97 113.904 137.275 113.136 144.286C112.73 147.993 112.303 151.897 109.93 155.588C104.593 163.974 98.4948 172.613 93.4125 178.204L92.3961 171.089L84.0104 163.465L81.4692 162.957L78.1658 159.654L74.8623 159.908L75.3705 158.637L82.7398 149.743L90.8714 146.186L91.3796 138.817L88.5844 138.054L89.0926 130.431L84.2645 129.923L84.7727 125.349L81.2151 121.537H76.8952H73.0835L72.8294 112.643V110.864C72.8294 109.339 73.0835 107.052 73.8459 106.036C74.8623 104.003 74.3541 102.224 74.3541 102.224L71.0506 98.6668V95.3633L63.1731 95.6174L62.919 91.8057L61.3944 90.7893L63.1731 89.7729L62.4108 82.9118L56.8203 82.1495L50.7216 77.8295L45.6394 77.0672L42.59 75.2884L42.0818 65.8862H36.9995L28.6138 71.7309L23.7857 71.4767L18.9575 71.2226L19.2117 64.6157L16.6706 66.3945L12.8589 66.9027L10.5719 65.1239H7.77661L7.52249 60.804L4.47314 55.4677L7.52249 51.656C7.52249 51.656 8.53895 46.3196 10.3177 45.049C12.0965 43.5244 20.4822 41.9997 20.4822 41.9997L22.0069 40.9832L23.0234 35.3927L24.0398 29.0399L20.7364 24.2118V21.6707H24.5481L22.5151 19.1295V16.8426L28.1056 16.5884L33.6961 14.5556L34.4584 15.3179C34.4584 15.3179 33.6961 19.6378 36.9995 20.146C40.0489 20.6542 46.1476 18.1131 46.4017 17.0967C46.6558 16.0802 50.4675 13.7932 50.4675 13.7932L49.451 12.2686L47.4182 12.7767L46.9099 9.21918L43.0982 5.15336L51.4839 7.18631L54.0251 5.66162L57.3285 4.89923C57.3285 4.89923 61.1402 3.88281 61.1402 2.86636C61.1402 2.35814 61.1402 1.59583 60.8861 0.833496L64.4437 1.5958L63.4272 3.8828L65.9684 5.66162L64.9519 10.4897L66.7307 15.8261L70.0342 17.859L73.0835 15.572L79.1822 14.8097L81.7234 14.5556L82.4857 12.7767H87.822H88.0762L90.3632 14.0473L96.4618 13.5391L101.036 3.8828C103.069 5.40747 104.339 6.93213 105.102 8.71092C105.475 9.69485 105.816 10.6652 106.151 11.6159C108.322 17.7856 110.203 23.1282 118.57 25.9906C120.924 26.8178 123.645 27.8363 126.493 28.9023C135.018 32.0933 144.682 35.7105 149.063 35.901C151.831 35.9542 154.889 36.6764 157.898 37.8854Z" fill="#AEB520"/>
</g>
<path d="M76.29 58.716C77.4887 59.1087 78.4393 59.77 79.142 60.7C79.8447 61.6093 80.196 62.746 80.196 64.11C80.196 65.9907 79.4727 67.4477 78.026 68.481C76.5793 69.4937 74.4713 70 71.702 70H60.914V48.3H71.082C73.6447 48.3 75.6183 48.8063 77.003 49.819C78.3877 50.811 79.08 52.1853 79.08 53.942C79.08 55.0167 78.832 55.9673 78.336 56.794C77.84 57.6207 77.158 58.2613 76.29 58.716ZM64.944 51.462V57.445H70.648C72.0533 57.445 73.128 57.197 73.872 56.701C74.6367 56.1843 75.019 55.4403 75.019 54.469C75.019 53.477 74.6367 52.733 73.872 52.237C73.128 51.7203 72.0533 51.462 70.648 51.462H64.944ZM71.454 66.838C74.5747 66.838 76.135 65.7943 76.135 63.707C76.135 61.6197 74.5747 60.576 71.454 60.576H64.944V66.838H71.454ZM87.814 55.864C88.93 54.128 90.8933 53.26 93.704 53.26V56.949C93.3733 56.887 93.0737 56.856 92.805 56.856C91.2963 56.856 90.1183 57.3003 89.271 58.189C88.4237 59.057 88 60.3177 88 61.971V70H84.125V53.446H87.814V55.864ZM103.224 53.26C105.663 53.26 107.523 53.849 108.804 55.027C110.106 56.1843 110.757 57.941 110.757 60.297V70H107.099V67.985C106.624 68.7083 105.942 69.2663 105.053 69.659C104.185 70.031 103.131 70.217 101.891 70.217C100.651 70.217 99.5664 70.0103 98.6364 69.597C97.7064 69.163 96.9831 68.574 96.4664 67.83C95.9704 67.0653 95.7224 66.2077 95.7224 65.257C95.7224 63.769 96.2701 62.5807 97.3654 61.692C98.4814 60.7827 100.228 60.328 102.604 60.328H106.882V60.08C106.882 58.9227 106.531 58.034 105.828 57.414C105.146 56.794 104.123 56.484 102.759 56.484C101.829 56.484 100.91 56.6287 100 56.918C99.1117 57.2073 98.3574 57.6103 97.7374 58.127L96.2184 55.306C97.0864 54.6447 98.1301 54.1383 99.3494 53.787C100.569 53.4357 101.86 53.26 103.224 53.26ZM102.697 67.396C103.669 67.396 104.526 67.179 105.27 66.745C106.035 66.2903 106.572 65.6497 106.882 64.823V62.901H102.883C100.651 62.901 99.5354 63.6347 99.5354 65.102C99.5354 65.8047 99.8144 66.3627 100.372 66.776C100.93 67.1893 101.705 67.396 102.697 67.396ZM128.657 66.9V70H114.366V67.551L123.449 56.546H114.552V53.446H128.409V55.895L119.295 66.9H128.657ZM132.23 53.446H136.105V70H132.23V53.446ZM134.183 50.718C133.48 50.718 132.891 50.501 132.416 50.067C131.94 49.6123 131.703 49.0543 131.703 48.393C131.703 47.7317 131.94 47.184 132.416 46.75C132.891 46.2953 133.48 46.068 134.183 46.068C134.885 46.068 135.474 46.285 135.95 46.719C136.425 47.1323 136.663 47.6593 136.663 48.3C136.663 48.982 136.425 49.5607 135.95 50.036C135.495 50.4907 134.906 50.718 134.183 50.718ZM141.19 46.998H145.065V70H141.19V46.998Z" fill="white"/>
<defs>
<filter id="filter0_d" x="0.473145" y="0.833496" width="170.194" height="185.37" filterUnits="userSpaceOnUse" color-interpolation-filters="sRGB">
<feFlood flood-opacity="0" result="BackgroundImageFix"/>
<feColorMatrix in="SourceAlpha" type="matrix" values="0 0 0 0 0 0 0 0 0 0 0 0 0 0 0 0 0 0 127 0"/>
<feOffset dy="4"/>
<feGaussianBlur stdDeviation="2"/>
<feColorMatrix type="matrix" values="0 0 0 0 0 0 0 0 0 0 0 0 0 0 0 0 0 0 0.25 0"/>
<feBlend mode="normal" in2="BackgroundImageFix" result="effect1_dropShadow"/>
<feBlend mode="normal" in="SourceGraphic" in2="effect1_dropShadow" result="shape"/>
</filter>
</defs>
</svg>
