<svg width="163" height="179" viewBox="0 0 163 179" fill="none" xmlns="http://www.w3.org/2000/svg">
<path class= "color" fill-rule="evenodd" clip-rule="evenodd" d="M153.898 37.8854C157.18 47.6948 160.13 57.7492 162.667 68.0181C153.176 78.6789 152.741 81.9843 151.769 89.3839C151.464 91.704 151.106 94.4265 150.399 97.9044C150.18 98.9851 149.974 100.034 149.774 101.053C146.964 115.364 145.339 123.636 124.226 128.144C110.595 130.97 109.904 137.275 109.136 144.286C108.73 147.993 108.303 151.897 105.93 155.588C100.593 163.974 94.4948 172.613 89.4125 178.204L88.3961 171.089L80.0104 163.465L77.4692 162.957L74.1658 159.654L70.8623 159.908L71.3705 158.637L78.7398 149.743L86.8714 146.186L87.3796 138.817L84.5844 138.054L85.0926 130.431L80.2645 129.923L80.7727 125.349L77.2151 121.537H72.8952H69.0835L68.8294 112.643V110.864C68.8294 109.339 69.0835 107.052 69.8459 106.036C70.8623 104.003 70.3541 102.224 70.3541 102.224L67.0506 98.6668V95.3633L59.1731 95.6174L58.919 91.8057L57.3944 90.7893L59.1731 89.7729L58.4108 82.9118L52.8203 82.1495L46.7216 77.8295L41.6394 77.0672L38.59 75.2884L38.0818 65.8862H32.9995L24.6138 71.7309L19.7857 71.4767L14.9575 71.2226L15.2117 64.6157L12.6706 66.3945L8.85886 66.9027L6.57187 65.1239H3.77661L3.52249 60.804L0.473145 55.4677L3.52249 51.656C3.52249 51.656 4.53895 46.3196 6.31774 45.049C8.09653 43.5244 16.4822 41.9997 16.4822 41.9997L18.0069 40.9832L19.0234 35.3927L20.0398 29.0399L16.7364 24.2118V21.6707H20.5481L18.5151 19.1295V16.8426L24.1056 16.5884L29.6961 14.5556L30.4584 15.3179C30.4584 15.3179 29.6961 19.6378 32.9995 20.146C36.0489 20.6542 42.1476 18.1131 42.4017 17.0967C42.6558 16.0802 46.4675 13.7932 46.4675 13.7932L45.451 12.2686L43.4182 12.7767L42.9099 9.21918L39.0982 5.15336L47.4839 7.18631L50.0251 5.66162L53.3285 4.89923C53.3285 4.89923 57.1402 3.88281 57.1402 2.86636C57.1402 2.35814 57.1402 1.59583 56.8861 0.833496L60.4437 1.5958L59.4272 3.8828L61.9684 5.66162L60.9519 10.4897L62.7307 15.8261L66.0342 17.859L69.0835 15.572L75.1822 14.8097L77.7234 14.5556L78.4857 12.7767H83.822H84.0762L86.3632 14.0473L92.4618 13.5391L97.0359 3.8828C99.0688 5.40747 100.339 6.93213 101.102 8.71092C101.475 9.69485 101.816 10.6652 102.151 11.6159C104.322 17.7856 106.203 23.1282 114.57 25.9906C116.924 26.8178 119.645 27.8363 122.493 28.9023C131.018 32.0933 140.682 35.7105 145.063 35.901C147.831 35.9542 150.889 36.6764 153.898 37.8854Z" fill="#AEB520"/>
<path d="M72.29 58.716C73.4887 59.1087 74.4393 59.77 75.142 60.7C75.8447 61.6093 76.196 62.746 76.196 64.11C76.196 65.9907 75.4727 67.4477 74.026 68.481C72.5793 69.4937 70.4713 70 67.702 70H56.914V48.3H67.082C69.6447 48.3 71.6183 48.8063 73.003 49.819C74.3877 50.811 75.08 52.1853 75.08 53.942C75.08 55.0167 74.832 55.9673 74.336 56.794C73.84 57.6207 73.158 58.2613 72.29 58.716ZM60.944 51.462V57.445H66.648C68.0533 57.445 69.128 57.197 69.872 56.701C70.6367 56.1843 71.019 55.4403 71.019 54.469C71.019 53.477 70.6367 52.733 69.872 52.237C69.128 51.7203 68.0533 51.462 66.648 51.462H60.944ZM67.454 66.838C70.5747 66.838 72.135 65.7943 72.135 63.707C72.135 61.6197 70.5747 60.576 67.454 60.576H60.944V66.838H67.454ZM83.814 55.864C84.93 54.128 86.8933 53.26 89.704 53.26V56.949C89.3733 56.887 89.0737 56.856 88.805 56.856C87.2963 56.856 86.1183 57.3003 85.271 58.189C84.4237 59.057 84 60.3177 84 61.971V70H80.125V53.446H83.814V55.864ZM99.2244 53.26C101.663 53.26 103.523 53.849 104.804 55.027C106.106 56.1843 106.757 57.941 106.757 60.297V70H103.099V67.985C102.624 68.7083 101.942 69.2663 101.053 69.659C100.185 70.031 99.1314 70.217 97.8914 70.217C96.6514 70.217 95.5664 70.0103 94.6364 69.597C93.7064 69.163 92.9831 68.574 92.4664 67.83C91.9704 67.0653 91.7224 66.2077 91.7224 65.257C91.7224 63.769 92.2701 62.5807 93.3654 61.692C94.4814 60.7827 96.2277 60.328 98.6044 60.328H102.882V60.08C102.882 58.9227 102.531 58.034 101.828 57.414C101.146 56.794 100.123 56.484 98.7594 56.484C97.8294 56.484 96.9097 56.6287 96.0004 56.918C95.1117 57.2073 94.3574 57.6103 93.7374 58.127L92.2184 55.306C93.0864 54.6447 94.1301 54.1383 95.3494 53.787C96.5687 53.4357 97.8604 53.26 99.2244 53.26ZM98.6974 67.396C99.6687 67.396 100.526 67.179 101.27 66.745C102.035 66.2903 102.572 65.6497 102.882 64.823V62.901H98.8834C96.6514 62.901 95.5354 63.6347 95.5354 65.102C95.5354 65.8047 95.8144 66.3627 96.3724 66.776C96.9304 67.1893 97.7054 67.396 98.6974 67.396ZM124.657 66.9V70H110.366V67.551L119.449 56.546H110.552V53.446H124.409V55.895L115.295 66.9H124.657ZM128.23 53.446H132.105V70H128.23V53.446ZM130.183 50.718C129.48 50.718 128.891 50.501 128.416 50.067C127.94 49.6123 127.703 49.0543 127.703 48.393C127.703 47.7317 127.94 47.184 128.416 46.75C128.891 46.2953 129.48 46.068 130.183 46.068C130.885 46.068 131.474 46.285 131.95 46.719C132.425 47.1323 132.663 47.6593 132.663 48.3C132.663 48.982 132.425 49.5607 131.95 50.036C131.495 50.4907 130.906 50.718 130.183 50.718ZM137.19 46.998H141.065V70H137.19V46.998Z" fill="white"/>
</svg>
