<svg width="140" height="95" viewBox="0 0 140 95" fill="none" xmlns="http://www.w3.org/2000/svg">
<g filter="url(#filter0_d)">
<path d="M123.845 55.8739C128.18 55.8739 137.36 53.3226 135.83 57.1496C134.555 60.2112 131.495 65.824 129.965 70.1613L127.16 69.651L123.59 72.4575H117.471L115.431 75.2639L121.04 80.3666L119.001 82.4076L116.196 83.173H112.371L111.861 87C108.036 83.4282 103.956 78.3255 100.131 79.6012C95.5415 81.1319 66.4726 77.8152 58.3129 67.8651C50.1532 57.915 57.2929 57.915 53.9781 53.0674C50.9182 48.2199 25.1642 16.0733 21.5943 9.95017C18.0245 3.827 11.9047 4.59239 16.7495 13.0117C21.5943 21.4311 34.3438 42.3519 35.8738 44.1378C37.6587 45.9238 39.1887 52.302 32.8139 45.9237C26.1842 39.5454 25.4192 31.8915 21.8493 31.3812C18.2794 30.871 12.1597 26.0234 12.6697 24.7478C13.1797 23.4721 17.0045 23.217 16.4945 21.9414C15.9845 20.6657 8.58982 6.63343 4 1.27566L13.6896 0L27.7141 6.12319L42.7585 7.65396L42.2485 4.84753L50.4082 5.10264L52.7031 7.9091C52.7031 7.9091 56.273 10.4604 57.5479 12.5015C58.5679 14.5425 62.3927 20.6657 64.1777 19.1349C66.2176 17.6041 67.7475 14.5425 67.7475 14.5425H71.5724L83.3019 32.6569L90.4417 34.1877C90.4417 34.4428 90.4417 34.9531 90.1867 34.9531C89.1667 36.739 87.1268 47.9648 88.4017 52.0469C89.9317 56.129 92.2266 65.3138 96.0514 67.3549C99.8763 69.3959 108.801 70.9267 112.371 68.6305C115.941 66.3343 120.276 64.2933 120.276 60.9766C120.276 58.4252 119.511 55.8739 123.845 55.8739Z" fill="#D9442C"/>
</g>
<path d="M55.633 42L55.624 37.824L53.554 41.28H53.032L50.962 37.878V42H49.846V35.7H50.809L53.311 39.876L55.768 35.7H56.731L56.74 42H55.633ZM62.8517 39.624C62.8517 39.702 62.8457 39.813 62.8337 39.957H59.0627C59.1287 40.311 59.2997 40.593 59.5757 40.803C59.8577 41.007 60.2057 41.109 60.6197 41.109C61.1477 41.109 61.5827 40.935 61.9247 40.587L62.5277 41.28C62.3117 41.538 62.0387 41.733 61.7087 41.865C61.3787 41.997 61.0067 42.063 60.5927 42.063C60.0647 42.063 59.5997 41.958 59.1977 41.748C58.7957 41.538 58.4837 41.247 58.2617 40.875C58.0457 40.497 57.9377 40.071 57.9377 39.597C57.9377 39.129 58.0427 38.709 58.2527 38.337C58.4687 37.959 58.7657 37.665 59.1437 37.455C59.5217 37.245 59.9477 37.14 60.4217 37.14C60.8897 37.14 61.3067 37.245 61.6727 37.455C62.0447 37.659 62.3327 37.95 62.5367 38.328C62.7467 38.7 62.8517 39.132 62.8517 39.624ZM60.4217 38.04C60.0617 38.04 59.7557 38.148 59.5037 38.364C59.2577 38.574 59.1077 38.856 59.0537 39.21H61.7807C61.7327 38.862 61.5857 38.58 61.3397 38.364C61.0937 38.148 60.7877 38.04 60.4217 38.04ZM66.8605 42L65.6275 40.335L64.3855 42H63.1435L65.0155 39.561L63.2245 37.194H64.4755L65.6545 38.769L66.8335 37.194H68.0485L66.2485 39.543L68.1295 42H66.8605ZM68.9597 37.194H70.0847V42H68.9597V37.194ZM69.5267 36.402C69.3227 36.402 69.1517 36.339 69.0137 36.213C68.8757 36.081 68.8067 35.919 68.8067 35.727C68.8067 35.535 68.8757 35.376 69.0137 35.25C69.1517 35.118 69.3227 35.052 69.5267 35.052C69.7307 35.052 69.9017 35.115 70.0397 35.241C70.1777 35.361 70.2467 35.514 70.2467 35.7C70.2467 35.898 70.1777 36.066 70.0397 36.204C69.9077 36.336 69.7367 36.402 69.5267 36.402ZM73.7662 42.063C73.2682 42.063 72.8212 41.958 72.4252 41.748C72.0292 41.538 71.7202 41.247 71.4982 40.875C71.2762 40.497 71.1652 40.071 71.1652 39.597C71.1652 39.123 71.2762 38.7 71.4982 38.328C71.7202 37.956 72.0262 37.665 72.4162 37.455C72.8122 37.245 73.2622 37.14 73.7662 37.14C74.2402 37.14 74.6542 37.236 75.0082 37.428C75.3682 37.62 75.6382 37.896 75.8182 38.256L74.9542 38.76C74.8162 38.538 74.6422 38.373 74.4322 38.265C74.2282 38.151 74.0032 38.094 73.7572 38.094C73.3372 38.094 72.9892 38.232 72.7132 38.508C72.4372 38.778 72.2992 39.141 72.2992 39.597C72.2992 40.053 72.4342 40.419 72.7042 40.695C72.9802 40.965 73.3312 41.1 73.7572 41.1C74.0032 41.1 74.2282 41.046 74.4322 40.938C74.6422 40.824 74.8162 40.656 74.9542 40.434L75.8182 40.938C75.6322 41.298 75.3592 41.577 74.9992 41.775C74.6452 41.967 74.2342 42.063 73.7662 42.063ZM78.8804 42.063C78.3944 42.063 77.9564 41.958 77.5664 41.748C77.1764 41.538 76.8704 41.247 76.6484 40.875C76.4324 40.497 76.3244 40.071 76.3244 39.597C76.3244 39.123 76.4324 38.7 76.6484 38.328C76.8704 37.956 77.1764 37.665 77.5664 37.455C77.9564 37.245 78.3944 37.14 78.8804 37.14C79.3724 37.14 79.8134 37.245 80.2034 37.455C80.5934 37.665 80.8964 37.956 81.1124 38.328C81.3344 38.7 81.4454 39.123 81.4454 39.597C81.4454 40.071 81.3344 40.497 81.1124 40.875C80.8964 41.247 80.5934 41.538 80.2034 41.748C79.8134 41.958 79.3724 42.063 78.8804 42.063ZM78.8804 41.1C79.2944 41.1 79.6364 40.962 79.9064 40.686C80.1764 40.41 80.3114 40.047 80.3114 39.597C80.3114 39.147 80.1764 38.784 79.9064 38.508C79.6364 38.232 79.2944 38.094 78.8804 38.094C78.4664 38.094 78.1244 38.232 77.8544 38.508C77.5904 38.784 77.4584 39.147 77.4584 39.597C77.4584 40.047 77.5904 40.41 77.8544 40.686C78.1244 40.962 78.4664 41.1 78.8804 41.1Z" fill="white"/>
<defs>
<filter id="filter0_d" x="0" y="0" width="140" height="95" filterUnits="userSpaceOnUse" color-interpolation-filters="sRGB">
<feFlood flood-opacity="0" result="BackgroundImageFix"/>
<feColorMatrix in="SourceAlpha" type="matrix" values="0 0 0 0 0 0 0 0 0 0 0 0 0 0 0 0 0 0 127 0"/>
<feOffset dy="4"/>
<feGaussianBlur stdDeviation="2"/>
<feColorMatrix type="matrix" values="0 0 0 0 0 0 0 0 0 0 0 0 0 0 0 0 0 0 0.25 0"/>
<feBlend mode="normal" in2="BackgroundImageFix" result="effect1_dropShadow"/>
<feBlend mode="normal" in="SourceGraphic" in2="effect1_dropShadow" result="shape"/>
</filter>
</defs>
</svg>
