<svg width="132" height="87" viewBox="0 0 132 87" fill="none" xmlns="http://www.w3.org/2000/svg">
<path d="M119.845 55.8739C124.18 55.8739 133.36 53.3226 131.83 57.1496C130.555 60.2112 127.495 65.824 125.965 70.1613L123.16 69.651L119.59 72.4575H113.471L111.431 75.2639L117.04 80.3666L115.001 82.4076L112.196 83.173H108.371L107.861 87C104.036 83.4282 99.9561 78.3255 96.1313 79.6012C91.5415 81.1319 62.4726 77.8152 54.3129 67.8651C46.1532 57.915 53.2929 57.915 49.9781 53.0674C46.9182 48.2199 21.1642 16.0733 17.5943 9.95017C14.0245 3.827 7.9047 4.59239 12.7495 13.0117C17.5943 21.4311 30.3438 42.3519 31.8738 44.1378C33.6587 45.9238 35.1887 52.302 28.8139 45.9237C22.1842 39.5454 21.4192 31.8915 17.8493 31.3812C14.2794 30.871 8.15969 26.0234 8.66967 24.7478C9.17965 23.4721 13.0045 23.217 12.4945 21.9414C11.9845 20.6657 4.58982 6.63343 0 1.27566L9.68963 0L23.7141 6.12319L38.7585 7.65396L38.2485 4.84753L46.4082 5.10264L48.7031 7.9091C48.7031 7.9091 52.273 10.4604 53.5479 12.5015C54.5679 14.5425 58.3927 20.6657 60.1777 19.1349C62.2176 17.6041 63.7475 14.5425 63.7475 14.5425H67.5724L79.3019 32.6569L86.4417 34.1877C86.4417 34.4428 86.4417 34.9531 86.1867 34.9531C85.1667 36.739 83.1268 47.9648 84.4017 52.0469C85.9317 56.129 88.2266 65.3138 92.0514 67.3549C95.8763 69.3959 104.801 70.9267 108.371 68.6305C111.941 66.3343 116.276 64.2933 116.276 60.9766C116.276 58.4252 115.511 55.8739 119.845 55.8739Z" fill="#D9442C"/>
<path d="M51.633 42L51.624 37.824L49.554 41.28H49.032L46.962 37.878V42H45.846V35.7H46.809L49.311 39.876L51.768 35.7H52.731L52.74 42H51.633ZM58.8517 39.624C58.8517 39.702 58.8457 39.813 58.8337 39.957H55.0627C55.1287 40.311 55.2997 40.593 55.5757 40.803C55.8577 41.007 56.2057 41.109 56.6197 41.109C57.1477 41.109 57.5827 40.935 57.9247 40.587L58.5277 41.28C58.3117 41.538 58.0387 41.733 57.7087 41.865C57.3787 41.997 57.0067 42.063 56.5927 42.063C56.0647 42.063 55.5997 41.958 55.1977 41.748C54.7957 41.538 54.4837 41.247 54.2617 40.875C54.0457 40.497 53.9377 40.071 53.9377 39.597C53.9377 39.129 54.0427 38.709 54.2527 38.337C54.4687 37.959 54.7657 37.665 55.1437 37.455C55.5217 37.245 55.9477 37.14 56.4217 37.14C56.8897 37.14 57.3067 37.245 57.6727 37.455C58.0447 37.659 58.3327 37.95 58.5367 38.328C58.7467 38.7 58.8517 39.132 58.8517 39.624ZM56.4217 38.04C56.0617 38.04 55.7557 38.148 55.5037 38.364C55.2577 38.574 55.1077 38.856 55.0537 39.21H57.7807C57.7327 38.862 57.5857 38.58 57.3397 38.364C57.0937 38.148 56.7877 38.04 56.4217 38.04ZM62.8605 42L61.6275 40.335L60.3855 42H59.1435L61.0155 39.561L59.2245 37.194H60.4755L61.6545 38.769L62.8335 37.194H64.0485L62.2485 39.543L64.1295 42H62.8605ZM64.9597 37.194H66.0847V42H64.9597V37.194ZM65.5267 36.402C65.3227 36.402 65.1517 36.339 65.0137 36.213C64.8757 36.081 64.8067 35.919 64.8067 35.727C64.8067 35.535 64.8757 35.376 65.0137 35.25C65.1517 35.118 65.3227 35.052 65.5267 35.052C65.7307 35.052 65.9017 35.115 66.0397 35.241C66.1777 35.361 66.2467 35.514 66.2467 35.7C66.2467 35.898 66.1777 36.066 66.0397 36.204C65.9077 36.336 65.7367 36.402 65.5267 36.402ZM69.7662 42.063C69.2682 42.063 68.8212 41.958 68.4252 41.748C68.0292 41.538 67.7202 41.247 67.4982 40.875C67.2762 40.497 67.1652 40.071 67.1652 39.597C67.1652 39.123 67.2762 38.7 67.4982 38.328C67.7202 37.956 68.0262 37.665 68.4162 37.455C68.8122 37.245 69.2622 37.14 69.7662 37.14C70.2402 37.14 70.6542 37.236 71.0082 37.428C71.3682 37.62 71.6382 37.896 71.8182 38.256L70.9542 38.76C70.8162 38.538 70.6422 38.373 70.4322 38.265C70.2282 38.151 70.0032 38.094 69.7572 38.094C69.3372 38.094 68.9892 38.232 68.7132 38.508C68.4372 38.778 68.2992 39.141 68.2992 39.597C68.2992 40.053 68.4342 40.419 68.7042 40.695C68.9802 40.965 69.3312 41.1 69.7572 41.1C70.0032 41.1 70.2282 41.046 70.4322 40.938C70.6422 40.824 70.8162 40.656 70.9542 40.434L71.8182 40.938C71.6322 41.298 71.3592 41.577 70.9992 41.775C70.6452 41.967 70.2342 42.063 69.7662 42.063ZM74.8804 42.063C74.3944 42.063 73.9564 41.958 73.5664 41.748C73.1764 41.538 72.8704 41.247 72.6484 40.875C72.4324 40.497 72.3244 40.071 72.3244 39.597C72.3244 39.123 72.4324 38.7 72.6484 38.328C72.8704 37.956 73.1764 37.665 73.5664 37.455C73.9564 37.245 74.3944 37.14 74.8804 37.14C75.3724 37.14 75.8134 37.245 76.2034 37.455C76.5934 37.665 76.8964 37.956 77.1124 38.328C77.3344 38.7 77.4454 39.123 77.4454 39.597C77.4454 40.071 77.3344 40.497 77.1124 40.875C76.8964 41.247 76.5934 41.538 76.2034 41.748C75.8134 41.958 75.3724 42.063 74.8804 42.063ZM74.8804 41.1C75.2944 41.1 75.6364 40.962 75.9064 40.686C76.1764 40.41 76.3114 40.047 76.3114 39.597C76.3114 39.147 76.1764 38.784 75.9064 38.508C75.6364 38.232 75.2944 38.094 74.8804 38.094C74.4664 38.094 74.1244 38.232 73.8544 38.508C73.5904 38.784 73.4584 39.147 73.4584 39.597C73.4584 40.047 73.5904 40.41 73.8544 40.686C74.1244 40.962 74.4664 41.1 74.8804 41.1Z" fill="white"/>
</svg>
