<svg width="232" height="134" viewBox="0 0 232 134" fill="none" xmlns="http://www.w3.org/2000/svg">
<path fill-rule="evenodd" clip-rule="evenodd" d="M0.441711 61.4145C9.44763 41.7193 19.3454 21.5114 31.2971 2.65744L123.087 2.2685L124.866 0.235596L126.137 4.80963H133.252L135.793 7.85897L137.572 6.33428L139.605 8.62132L141.638 7.09662L146.72 8.62132L148.753 8.36719L153.073 6.33428L169.336 18.0235L171.623 19.0399L173.402 22.0893L177.976 25.3927L179.5 34.2866C179.5 34.2866 179.5 39.3689 178.738 40.3854C177.976 41.1477 175.689 43.6888 175.689 43.6888C175.689 43.6888 174.926 46.4841 176.451 46.7382C177.976 47.2464 181.025 46.23 181.025 46.23L192.968 40.8936L192.46 36.5737L202.37 36.3196C202.37 36.3196 205.42 30.9832 206.944 30.7291C208.469 30.2209 210.756 27.9338 210.756 27.9338H224.732V27.4256L231.339 34.0326C231.085 34.2867 231.085 34.2867 231.085 34.5408C230.916 35.3852 230.551 36.1735 230.194 36.943C229.478 38.4891 228.797 39.9593 229.815 41.6559C231.593 44.1971 233.372 46.7382 226.765 49.0252C225.158 49.5814 223.762 49.9873 222.543 50.3416C218.75 51.4441 216.676 52.0469 215.33 55.1239C215.33 55.1239 212.535 64.0178 210.756 66.559C208.977 69.3542 208.215 69.8624 206.944 69.1001C206.639 68.9167 206.318 68.6303 206.029 68.3719C205.117 67.5563 204.516 67.0193 205.674 70.8789C205.947 71.7902 206.294 72.6769 206.635 73.5494C208.198 77.543 209.643 81.2379 203.387 85.6174C201.576 86.8852 199.607 88.2105 197.654 89.5249C191.387 93.743 185.285 97.8499 185.091 99.5936C185.03 100.078 184.84 100.591 184.616 101.194C183.9 103.125 182.84 105.983 184.583 111.791C186.87 119.414 190.681 134.153 186.615 133.899C182.55 133.645 179.246 124.751 178.23 121.701C178.038 121.126 177.855 120.361 177.649 119.499C176.763 115.787 175.445 110.266 171.115 110.266C168.869 110.368 165.474 110.019 162.019 109.664C156.874 109.135 151.593 108.592 149.769 109.504C148.966 109.905 148.41 110.342 147.891 110.749C146.441 111.888 145.287 112.794 139.859 112.045C132.489 111.029 123.596 111.537 117.751 118.398C113.653 123.111 114.181 126.172 114.539 128.246C114.625 128.744 114.702 129.185 114.702 129.579L107.586 128.054L95.8973 110.012H92.0856C92.0856 110.012 90.3068 113.062 88.528 114.586C86.4951 115.857 82.9375 109.758 81.9211 107.979C80.9046 105.946 77.0929 103.405 77.0929 103.405L74.8059 100.61L66.6743 100.356L67.1826 103.151L52.1899 101.626L38.2138 95.5278L28.5575 96.7983C28.4304 96.5442 28.2398 96.3536 28.0493 96.1631C27.8587 95.9725 27.6681 95.7819 27.541 95.5278C25.4253 93.4121 22.3463 91.434 19.593 89.6651C17.0552 88.0347 14.794 86.5821 13.8189 85.3633C12.0099 83.1019 4.56599 72.7908 0.441711 61.4145Z" fill="#AEB520"/>
<path d="M36.295 69.21C34.265 69.21 32.683 68.643 31.549 67.509C30.415 66.361 29.848 64.723 29.848 62.595V54.3H32.578V62.49C32.578 65.374 33.824 66.816 36.316 66.816C38.794 66.816 40.033 65.374 40.033 62.49V54.3H42.721V62.595C42.721 64.723 42.154 66.361 41.02 67.509C39.9 68.643 38.325 69.21 36.295 69.21ZM52.6553 57.66C54.0693 57.66 55.2033 58.073 56.0573 58.899C56.9113 59.725 57.3383 60.95 57.3383 62.574V69H54.7133V62.91C54.7133 61.93 54.4823 61.195 54.0203 60.705C53.5583 60.201 52.9003 59.949 52.0463 59.949C51.0803 59.949 50.3173 60.243 49.7573 60.831C49.1973 61.405 48.9173 62.238 48.9173 63.33V69H46.2923V57.786H48.7913V59.235C49.2253 58.717 49.7713 58.325 50.4293 58.059C51.0873 57.793 51.8293 57.66 52.6553 57.66ZM60.6683 57.786H63.2933V69H60.6683V57.786ZM61.9913 55.938C61.5153 55.938 61.1163 55.791 60.7943 55.497C60.4723 55.189 60.3113 54.811 60.3113 54.363C60.3113 53.915 60.4723 53.544 60.7943 53.25C61.1163 52.942 61.5153 52.788 61.9913 52.788C62.4673 52.788 62.8663 52.935 63.1883 53.229C63.5103 53.509 63.6713 53.866 63.6713 54.3C63.6713 54.762 63.5103 55.154 63.1883 55.476C62.8803 55.784 62.4813 55.938 61.9913 55.938ZM73.4796 68.391C73.1716 68.643 72.7936 68.832 72.3456 68.958C71.9116 69.084 71.4496 69.147 70.9596 69.147C69.7276 69.147 68.7756 68.825 68.1036 68.181C67.4316 67.537 67.0956 66.599 67.0956 65.367V59.97H65.2476V57.87H67.0956V55.308H69.7206V57.87H72.7236V59.97H69.7206V65.304C69.7206 65.85 69.8536 66.27 70.1196 66.564C70.3856 66.844 70.7706 66.984 71.2746 66.984C71.8626 66.984 72.3526 66.83 72.7446 66.522L73.4796 68.391ZM85.8119 63.456C85.8119 63.638 85.7979 63.897 85.7699 64.233H76.9709C77.1249 65.059 77.5239 65.717 78.1679 66.207C78.8259 66.683 79.6379 66.921 80.6039 66.921C81.8359 66.921 82.8509 66.515 83.6489 65.703L85.0559 67.32C84.5519 67.922 83.9149 68.377 83.1449 68.685C82.3749 68.993 81.5069 69.147 80.5409 69.147C79.3089 69.147 78.2239 68.902 77.2859 68.412C76.3479 67.922 75.6199 67.243 75.1019 66.375C74.5979 65.493 74.3459 64.499 74.3459 63.393C74.3459 62.301 74.5909 61.321 75.0809 60.453C75.5849 59.571 76.2779 58.885 77.1599 58.395C78.0419 57.905 79.0359 57.66 80.1419 57.66C81.2339 57.66 82.2069 57.905 83.0609 58.395C83.9289 58.871 84.6009 59.55 85.0769 60.432C85.5669 61.3 85.8119 62.308 85.8119 63.456ZM80.1419 59.76C79.3019 59.76 78.5879 60.012 77.9999 60.516C77.4259 61.006 77.0759 61.664 76.9499 62.49H83.3129C83.2009 61.678 82.8579 61.02 82.2839 60.516C81.7099 60.012 80.9959 59.76 80.1419 59.76ZM99.3163 53.418V69H96.7963V67.551C96.3623 68.083 95.8233 68.482 95.1793 68.748C94.5493 69.014 93.8493 69.147 93.0793 69.147C92.0013 69.147 91.0283 68.909 90.1603 68.433C89.3063 67.957 88.6343 67.285 88.1443 66.417C87.6543 65.535 87.4093 64.527 87.4093 63.393C87.4093 62.259 87.6543 61.258 88.1443 60.39C88.6343 59.522 89.3063 58.85 90.1603 58.374C91.0283 57.898 92.0013 57.66 93.0793 57.66C93.8213 57.66 94.5003 57.786 95.1163 58.038C95.7323 58.29 96.2573 58.668 96.6913 59.172V53.418H99.3163ZM93.3943 66.9C94.0243 66.9 94.5913 66.76 95.0953 66.48C95.5993 66.186 95.9983 65.773 96.2923 65.241C96.5863 64.709 96.7333 64.093 96.7333 63.393C96.7333 62.693 96.5863 62.077 96.2923 61.545C95.9983 61.013 95.5993 60.607 95.0953 60.327C94.5913 60.033 94.0243 59.886 93.3943 59.886C92.7643 59.886 92.1973 60.033 91.6933 60.327C91.1893 60.607 90.7903 61.013 90.4963 61.545C90.2023 62.077 90.0553 62.693 90.0553 63.393C90.0553 64.093 90.2023 64.709 90.4963 65.241C90.7903 65.773 91.1893 66.186 91.6933 66.48C92.1973 66.76 92.7643 66.9 93.3943 66.9ZM113.363 69.21C112.229 69.21 111.13 69.049 110.066 68.727C109.016 68.405 108.183 67.978 107.567 67.446L108.512 65.325C109.114 65.801 109.849 66.193 110.717 66.501C111.599 66.795 112.481 66.942 113.363 66.942C114.455 66.942 115.267 66.767 115.799 66.417C116.345 66.067 116.618 65.605 116.618 65.031C116.618 64.611 116.464 64.268 116.156 64.002C115.862 63.722 115.484 63.505 115.022 63.351C114.56 63.197 113.93 63.022 113.132 62.826C112.012 62.56 111.102 62.294 110.402 62.028C109.716 61.762 109.121 61.349 108.617 60.789C108.127 60.215 107.882 59.445 107.882 58.479C107.882 57.667 108.099 56.932 108.533 56.274C108.981 55.602 109.646 55.07 110.528 54.678C111.424 54.286 112.516 54.09 113.804 54.09C114.7 54.09 115.582 54.202 116.45 54.426C117.318 54.65 118.067 54.972 118.697 55.392L117.836 57.513C117.192 57.135 116.52 56.848 115.82 56.652C115.12 56.456 114.441 56.358 113.783 56.358C112.705 56.358 111.9 56.54 111.368 56.904C110.85 57.268 110.591 57.751 110.591 58.353C110.591 58.773 110.738 59.116 111.032 59.382C111.34 59.648 111.725 59.858 112.187 60.012C112.649 60.166 113.279 60.341 114.077 60.537C115.169 60.789 116.065 61.055 116.765 61.335C117.465 61.601 118.06 62.014 118.55 62.574C119.054 63.134 119.306 63.89 119.306 64.842C119.306 65.654 119.082 66.389 118.634 67.047C118.2 67.705 117.535 68.23 116.639 68.622C115.743 69.014 114.651 69.21 113.363 69.21ZM128.502 68.391C128.194 68.643 127.816 68.832 127.368 68.958C126.934 69.084 126.472 69.147 125.982 69.147C124.75 69.147 123.798 68.825 123.126 68.181C122.454 67.537 122.118 66.599 122.118 65.367V59.97H120.27V57.87H122.118V55.308H124.743V57.87H127.746V59.97H124.743V65.304C124.743 65.85 124.876 66.27 125.142 66.564C125.408 66.844 125.793 66.984 126.297 66.984C126.885 66.984 127.375 66.83 127.767 66.522L128.502 68.391ZM134.945 57.66C136.597 57.66 137.857 58.059 138.725 58.857C139.607 59.641 140.048 60.831 140.048 62.427V69H137.57V67.635C137.248 68.125 136.786 68.503 136.184 68.769C135.596 69.021 134.882 69.147 134.042 69.147C133.202 69.147 132.467 69.007 131.837 68.727C131.207 68.433 130.717 68.034 130.367 67.53C130.031 67.012 129.863 66.431 129.863 65.787C129.863 64.779 130.234 63.974 130.976 63.372C131.732 62.756 132.915 62.448 134.525 62.448H137.423V62.28C137.423 61.496 137.185 60.894 136.709 60.474C136.247 60.054 135.554 59.844 134.63 59.844C134 59.844 133.377 59.942 132.761 60.138C132.159 60.334 131.648 60.607 131.228 60.957L130.199 59.046C130.787 58.598 131.494 58.255 132.32 58.017C133.146 57.779 134.021 57.66 134.945 57.66ZM134.588 67.236C135.246 67.236 135.827 67.089 136.331 66.795C136.849 66.487 137.213 66.053 137.423 65.493V64.191H134.714C133.202 64.191 132.446 64.688 132.446 65.682C132.446 66.158 132.635 66.536 133.013 66.816C133.391 67.096 133.916 67.236 134.588 67.236ZM150.158 68.391C149.85 68.643 149.472 68.832 149.024 68.958C148.59 69.084 148.128 69.147 147.638 69.147C146.406 69.147 145.454 68.825 144.782 68.181C144.11 67.537 143.774 66.599 143.774 65.367V59.97H141.926V57.87H143.774V55.308H146.399V57.87H149.402V59.97H146.399V65.304C146.399 65.85 146.532 66.27 146.798 66.564C147.064 66.844 147.449 66.984 147.953 66.984C148.541 66.984 149.031 66.83 149.423 66.522L150.158 68.391ZM162.491 63.456C162.491 63.638 162.477 63.897 162.449 64.233H153.65C153.804 65.059 154.203 65.717 154.847 66.207C155.505 66.683 156.317 66.921 157.283 66.921C158.515 66.921 159.53 66.515 160.328 65.703L161.735 67.32C161.231 67.922 160.594 68.377 159.824 68.685C159.054 68.993 158.186 69.147 157.22 69.147C155.988 69.147 154.903 68.902 153.965 68.412C153.027 67.922 152.299 67.243 151.781 66.375C151.277 65.493 151.025 64.499 151.025 63.393C151.025 62.301 151.27 61.321 151.76 60.453C152.264 59.571 152.957 58.885 153.839 58.395C154.721 57.905 155.715 57.66 156.821 57.66C157.913 57.66 158.886 57.905 159.74 58.395C160.608 58.871 161.28 59.55 161.756 60.432C162.246 61.3 162.491 62.308 162.491 63.456ZM156.821 59.76C155.981 59.76 155.267 60.012 154.679 60.516C154.105 61.006 153.755 61.664 153.629 62.49H159.992C159.88 61.678 159.537 61.02 158.963 60.516C158.389 60.012 157.675 59.76 156.821 59.76ZM168.477 69.147C167.567 69.147 166.678 69.028 165.81 68.79C164.942 68.552 164.249 68.251 163.731 67.887L164.739 65.892C165.243 66.228 165.845 66.501 166.545 66.711C167.259 66.907 167.959 67.005 168.645 67.005C170.213 67.005 170.997 66.592 170.997 65.766C170.997 65.374 170.794 65.101 170.388 64.947C169.996 64.793 169.359 64.646 168.477 64.506C167.553 64.366 166.797 64.205 166.209 64.023C165.635 63.841 165.131 63.526 164.697 63.078C164.277 62.616 164.067 61.979 164.067 61.167C164.067 60.103 164.508 59.256 165.39 58.626C166.286 57.982 167.49 57.66 169.002 57.66C169.772 57.66 170.542 57.751 171.312 57.933C172.082 58.101 172.712 58.332 173.202 58.626L172.194 60.621C171.242 60.061 170.171 59.781 168.981 59.781C168.211 59.781 167.623 59.9 167.217 60.138C166.825 60.362 166.629 60.663 166.629 61.041C166.629 61.461 166.839 61.762 167.259 61.944C167.693 62.112 168.358 62.273 169.254 62.427C170.15 62.567 170.885 62.728 171.459 62.91C172.033 63.092 172.523 63.4 172.929 63.834C173.349 64.268 173.559 64.884 173.559 65.682C173.559 66.732 173.104 67.572 172.194 68.202C171.284 68.832 170.045 69.147 168.477 69.147Z" fill="white"/>
</svg>
