<svg width="240" height="142" viewBox="0 0 240 142" fill="none" xmlns="http://www.w3.org/2000/svg">
<g filter="url(#filter0_d)">
<path fill-rule="evenodd" clip-rule="evenodd" d="M4.44171 61.4145C13.4476 41.7193 23.3454 21.5114 35.2971 2.65744L127.087 2.2685L128.866 0.235596L130.137 4.80963H137.252L139.793 7.85897L141.572 6.33428L143.605 8.62132L145.638 7.09662L150.72 8.62132L152.753 8.36719L157.073 6.33428L173.336 18.0235L175.623 19.0399L177.402 22.0893L181.976 25.3927L183.5 34.2866C183.5 34.2866 183.5 39.3689 182.738 40.3854C181.976 41.1477 179.689 43.6888 179.689 43.6888C179.689 43.6888 178.926 46.4841 180.451 46.7382C181.976 47.2464 185.025 46.23 185.025 46.23L196.968 40.8936L196.46 36.5737L206.37 36.3196C206.37 36.3196 209.42 30.9832 210.944 30.7291C212.469 30.2209 214.756 27.9338 214.756 27.9338H228.732V27.4256L235.339 34.0326C235.085 34.2867 235.085 34.2867 235.085 34.5408C234.916 35.3852 234.551 36.1735 234.194 36.943C233.478 38.4891 232.797 39.9593 233.815 41.6559C235.593 44.1971 237.372 46.7382 230.765 49.0252C229.158 49.5814 227.762 49.9873 226.543 50.3416C222.75 51.4441 220.676 52.0469 219.33 55.1239C219.33 55.1239 216.535 64.0178 214.756 66.559C212.977 69.3542 212.215 69.8624 210.944 69.1001C210.639 68.9167 210.318 68.6303 210.029 68.3719C209.117 67.5563 208.516 67.0193 209.674 70.8789C209.947 71.7902 210.294 72.6769 210.635 73.5494C212.198 77.543 213.643 81.2379 207.387 85.6174C205.576 86.8852 203.607 88.2105 201.654 89.5249C195.387 93.743 189.285 97.8499 189.091 99.5936C189.03 100.078 188.84 100.591 188.616 101.194C187.9 103.125 186.84 105.983 188.583 111.791C190.87 119.414 194.681 134.153 190.615 133.899C186.55 133.645 183.246 124.751 182.23 121.701C182.038 121.126 181.855 120.361 181.649 119.499C180.763 115.787 179.445 110.266 175.115 110.266C172.869 110.368 169.474 110.019 166.019 109.664C160.874 109.135 155.593 108.592 153.769 109.504C152.966 109.905 152.41 110.342 151.891 110.749C150.441 111.888 149.287 112.794 143.859 112.045C136.489 111.029 127.596 111.537 121.751 118.398C117.653 123.111 118.181 126.172 118.539 128.246C118.625 128.744 118.702 129.185 118.702 129.579L111.586 128.054L99.8973 110.012H96.0856C96.0856 110.012 94.3068 113.062 92.528 114.586C90.4951 115.857 86.9375 109.758 85.9211 107.979C84.9046 105.946 81.0929 103.405 81.0929 103.405L78.8059 100.61L70.6743 100.356L71.1826 103.151L56.1899 101.626L42.2138 95.5278L32.5575 96.7983C32.4304 96.5442 32.2398 96.3536 32.0493 96.1631C31.8587 95.9725 31.6681 95.7819 31.541 95.5278C29.4253 93.4121 26.3463 91.434 23.593 89.6651C21.0552 88.0347 18.794 86.5821 17.8189 85.3633C16.0099 83.1019 8.56599 72.7908 4.44171 61.4145Z" fill="#AEB520"/>
</g>
<path d="M40.295 69.21C38.265 69.21 36.683 68.643 35.549 67.509C34.415 66.361 33.848 64.723 33.848 62.595V54.3H36.578V62.49C36.578 65.374 37.824 66.816 40.316 66.816C42.794 66.816 44.033 65.374 44.033 62.49V54.3H46.721V62.595C46.721 64.723 46.154 66.361 45.02 67.509C43.9 68.643 42.325 69.21 40.295 69.21ZM56.6553 57.66C58.0693 57.66 59.2033 58.073 60.0573 58.899C60.9113 59.725 61.3383 60.95 61.3383 62.574V69H58.7133V62.91C58.7133 61.93 58.4823 61.195 58.0203 60.705C57.5583 60.201 56.9003 59.949 56.0463 59.949C55.0803 59.949 54.3173 60.243 53.7573 60.831C53.1973 61.405 52.9173 62.238 52.9173 63.33V69H50.2923V57.786H52.7913V59.235C53.2253 58.717 53.7713 58.325 54.4293 58.059C55.0873 57.793 55.8293 57.66 56.6553 57.66ZM64.6683 57.786H67.2933V69H64.6683V57.786ZM65.9913 55.938C65.5153 55.938 65.1163 55.791 64.7943 55.497C64.4723 55.189 64.3113 54.811 64.3113 54.363C64.3113 53.915 64.4723 53.544 64.7943 53.25C65.1163 52.942 65.5153 52.788 65.9913 52.788C66.4673 52.788 66.8663 52.935 67.1883 53.229C67.5103 53.509 67.6713 53.866 67.6713 54.3C67.6713 54.762 67.5103 55.154 67.1883 55.476C66.8803 55.784 66.4813 55.938 65.9913 55.938ZM77.4796 68.391C77.1716 68.643 76.7936 68.832 76.3456 68.958C75.9116 69.084 75.4496 69.147 74.9596 69.147C73.7276 69.147 72.7756 68.825 72.1036 68.181C71.4316 67.537 71.0956 66.599 71.0956 65.367V59.97H69.2476V57.87H71.0956V55.308H73.7206V57.87H76.7236V59.97H73.7206V65.304C73.7206 65.85 73.8536 66.27 74.1196 66.564C74.3856 66.844 74.7706 66.984 75.2746 66.984C75.8626 66.984 76.3526 66.83 76.7446 66.522L77.4796 68.391ZM89.8119 63.456C89.8119 63.638 89.7979 63.897 89.7699 64.233H80.9709C81.1249 65.059 81.5239 65.717 82.1679 66.207C82.8259 66.683 83.6379 66.921 84.6039 66.921C85.8359 66.921 86.8509 66.515 87.6489 65.703L89.0559 67.32C88.5519 67.922 87.9149 68.377 87.1449 68.685C86.3749 68.993 85.5069 69.147 84.5409 69.147C83.3089 69.147 82.2239 68.902 81.2859 68.412C80.3479 67.922 79.6199 67.243 79.1019 66.375C78.5979 65.493 78.3459 64.499 78.3459 63.393C78.3459 62.301 78.5909 61.321 79.0809 60.453C79.5849 59.571 80.2779 58.885 81.1599 58.395C82.0419 57.905 83.0359 57.66 84.1419 57.66C85.2339 57.66 86.2069 57.905 87.0609 58.395C87.9289 58.871 88.6009 59.55 89.0769 60.432C89.5669 61.3 89.8119 62.308 89.8119 63.456ZM84.1419 59.76C83.3019 59.76 82.5879 60.012 81.9999 60.516C81.4259 61.006 81.0759 61.664 80.9499 62.49H87.3129C87.2009 61.678 86.8579 61.02 86.2839 60.516C85.7099 60.012 84.9959 59.76 84.1419 59.76ZM103.316 53.418V69H100.796V67.551C100.362 68.083 99.8233 68.482 99.1793 68.748C98.5493 69.014 97.8493 69.147 97.0793 69.147C96.0013 69.147 95.0283 68.909 94.1603 68.433C93.3063 67.957 92.6343 67.285 92.1443 66.417C91.6543 65.535 91.4093 64.527 91.4093 63.393C91.4093 62.259 91.6543 61.258 92.1443 60.39C92.6343 59.522 93.3063 58.85 94.1603 58.374C95.0283 57.898 96.0013 57.66 97.0793 57.66C97.8213 57.66 98.5003 57.786 99.1163 58.038C99.7323 58.29 100.257 58.668 100.691 59.172V53.418H103.316ZM97.3943 66.9C98.0243 66.9 98.5913 66.76 99.0953 66.48C99.5993 66.186 99.9983 65.773 100.292 65.241C100.586 64.709 100.733 64.093 100.733 63.393C100.733 62.693 100.586 62.077 100.292 61.545C99.9983 61.013 99.5993 60.607 99.0953 60.327C98.5913 60.033 98.0243 59.886 97.3943 59.886C96.7643 59.886 96.1973 60.033 95.6933 60.327C95.1893 60.607 94.7903 61.013 94.4963 61.545C94.2023 62.077 94.0553 62.693 94.0553 63.393C94.0553 64.093 94.2023 64.709 94.4963 65.241C94.7903 65.773 95.1893 66.186 95.6933 66.48C96.1973 66.76 96.7643 66.9 97.3943 66.9ZM117.363 69.21C116.229 69.21 115.13 69.049 114.066 68.727C113.016 68.405 112.183 67.978 111.567 67.446L112.512 65.325C113.114 65.801 113.849 66.193 114.717 66.501C115.599 66.795 116.481 66.942 117.363 66.942C118.455 66.942 119.267 66.767 119.799 66.417C120.345 66.067 120.618 65.605 120.618 65.031C120.618 64.611 120.464 64.268 120.156 64.002C119.862 63.722 119.484 63.505 119.022 63.351C118.56 63.197 117.93 63.022 117.132 62.826C116.012 62.56 115.102 62.294 114.402 62.028C113.716 61.762 113.121 61.349 112.617 60.789C112.127 60.215 111.882 59.445 111.882 58.479C111.882 57.667 112.099 56.932 112.533 56.274C112.981 55.602 113.646 55.07 114.528 54.678C115.424 54.286 116.516 54.09 117.804 54.09C118.7 54.09 119.582 54.202 120.45 54.426C121.318 54.65 122.067 54.972 122.697 55.392L121.836 57.513C121.192 57.135 120.52 56.848 119.82 56.652C119.12 56.456 118.441 56.358 117.783 56.358C116.705 56.358 115.9 56.54 115.368 56.904C114.85 57.268 114.591 57.751 114.591 58.353C114.591 58.773 114.738 59.116 115.032 59.382C115.34 59.648 115.725 59.858 116.187 60.012C116.649 60.166 117.279 60.341 118.077 60.537C119.169 60.789 120.065 61.055 120.765 61.335C121.465 61.601 122.06 62.014 122.55 62.574C123.054 63.134 123.306 63.89 123.306 64.842C123.306 65.654 123.082 66.389 122.634 67.047C122.2 67.705 121.535 68.23 120.639 68.622C119.743 69.014 118.651 69.21 117.363 69.21ZM132.502 68.391C132.194 68.643 131.816 68.832 131.368 68.958C130.934 69.084 130.472 69.147 129.982 69.147C128.75 69.147 127.798 68.825 127.126 68.181C126.454 67.537 126.118 66.599 126.118 65.367V59.97H124.27V57.87H126.118V55.308H128.743V57.87H131.746V59.97H128.743V65.304C128.743 65.85 128.876 66.27 129.142 66.564C129.408 66.844 129.793 66.984 130.297 66.984C130.885 66.984 131.375 66.83 131.767 66.522L132.502 68.391ZM138.945 57.66C140.597 57.66 141.857 58.059 142.725 58.857C143.607 59.641 144.048 60.831 144.048 62.427V69H141.57V67.635C141.248 68.125 140.786 68.503 140.184 68.769C139.596 69.021 138.882 69.147 138.042 69.147C137.202 69.147 136.467 69.007 135.837 68.727C135.207 68.433 134.717 68.034 134.367 67.53C134.031 67.012 133.863 66.431 133.863 65.787C133.863 64.779 134.234 63.974 134.976 63.372C135.732 62.756 136.915 62.448 138.525 62.448H141.423V62.28C141.423 61.496 141.185 60.894 140.709 60.474C140.247 60.054 139.554 59.844 138.63 59.844C138 59.844 137.377 59.942 136.761 60.138C136.159 60.334 135.648 60.607 135.228 60.957L134.199 59.046C134.787 58.598 135.494 58.255 136.32 58.017C137.146 57.779 138.021 57.66 138.945 57.66ZM138.588 67.236C139.246 67.236 139.827 67.089 140.331 66.795C140.849 66.487 141.213 66.053 141.423 65.493V64.191H138.714C137.202 64.191 136.446 64.688 136.446 65.682C136.446 66.158 136.635 66.536 137.013 66.816C137.391 67.096 137.916 67.236 138.588 67.236ZM154.158 68.391C153.85 68.643 153.472 68.832 153.024 68.958C152.59 69.084 152.128 69.147 151.638 69.147C150.406 69.147 149.454 68.825 148.782 68.181C148.11 67.537 147.774 66.599 147.774 65.367V59.97H145.926V57.87H147.774V55.308H150.399V57.87H153.402V59.97H150.399V65.304C150.399 65.85 150.532 66.27 150.798 66.564C151.064 66.844 151.449 66.984 151.953 66.984C152.541 66.984 153.031 66.83 153.423 66.522L154.158 68.391ZM166.491 63.456C166.491 63.638 166.477 63.897 166.449 64.233H157.65C157.804 65.059 158.203 65.717 158.847 66.207C159.505 66.683 160.317 66.921 161.283 66.921C162.515 66.921 163.53 66.515 164.328 65.703L165.735 67.32C165.231 67.922 164.594 68.377 163.824 68.685C163.054 68.993 162.186 69.147 161.22 69.147C159.988 69.147 158.903 68.902 157.965 68.412C157.027 67.922 156.299 67.243 155.781 66.375C155.277 65.493 155.025 64.499 155.025 63.393C155.025 62.301 155.27 61.321 155.76 60.453C156.264 59.571 156.957 58.885 157.839 58.395C158.721 57.905 159.715 57.66 160.821 57.66C161.913 57.66 162.886 57.905 163.74 58.395C164.608 58.871 165.28 59.55 165.756 60.432C166.246 61.3 166.491 62.308 166.491 63.456ZM160.821 59.76C159.981 59.76 159.267 60.012 158.679 60.516C158.105 61.006 157.755 61.664 157.629 62.49H163.992C163.88 61.678 163.537 61.02 162.963 60.516C162.389 60.012 161.675 59.76 160.821 59.76ZM172.477 69.147C171.567 69.147 170.678 69.028 169.81 68.79C168.942 68.552 168.249 68.251 167.731 67.887L168.739 65.892C169.243 66.228 169.845 66.501 170.545 66.711C171.259 66.907 171.959 67.005 172.645 67.005C174.213 67.005 174.997 66.592 174.997 65.766C174.997 65.374 174.794 65.101 174.388 64.947C173.996 64.793 173.359 64.646 172.477 64.506C171.553 64.366 170.797 64.205 170.209 64.023C169.635 63.841 169.131 63.526 168.697 63.078C168.277 62.616 168.067 61.979 168.067 61.167C168.067 60.103 168.508 59.256 169.39 58.626C170.286 57.982 171.49 57.66 173.002 57.66C173.772 57.66 174.542 57.751 175.312 57.933C176.082 58.101 176.712 58.332 177.202 58.626L176.194 60.621C175.242 60.061 174.171 59.781 172.981 59.781C172.211 59.781 171.623 59.9 171.217 60.138C170.825 60.362 170.629 60.663 170.629 61.041C170.629 61.461 170.839 61.762 171.259 61.944C171.693 62.112 172.358 62.273 173.254 62.427C174.15 62.567 174.885 62.728 175.459 62.91C176.033 63.092 176.523 63.4 176.929 63.834C177.349 64.268 177.559 64.884 177.559 65.682C177.559 66.732 177.104 67.572 176.194 68.202C175.284 68.832 174.045 69.147 172.477 69.147Z" fill="white"/>
<defs>
<filter id="filter0_d" x="0.441711" y="0.235596" width="239.011" height="141.666" filterUnits="userSpaceOnUse" color-interpolation-filters="sRGB">
<feFlood flood-opacity="0" result="BackgroundImageFix"/>
<feColorMatrix in="SourceAlpha" type="matrix" values="0 0 0 0 0 0 0 0 0 0 0 0 0 0 0 0 0 0 127 0"/>
<feOffset dy="4"/>
<feGaussianBlur stdDeviation="2"/>
<feColorMatrix type="matrix" values="0 0 0 0 0 0 0 0 0 0 0 0 0 0 0 0 0 0 0.25 0"/>
<feBlend mode="normal" in2="BackgroundImageFix" result="effect1_dropShadow"/>
<feBlend mode="normal" in="SourceGraphic" in2="effect1_dropShadow" result="shape"/>
</filter>
</defs>
</svg>
