<svg width="9" height="9" viewBox="0 0 9 9" fill="none" xmlns="http://www.w3.org/2000/svg">
<path d="M5.29619 4.50011L8.83549 0.960812C9.05539 0.741107 9.05539 0.384625 8.83549 0.16492C8.6156 -0.0549733 8.25949 -0.0549733 8.0396 0.16492L4.5003 3.70422L0.960812 0.16492C0.740919 -0.0549733 0.384813 -0.0549733 0.16492 0.16492C-0.0549732 0.384625 -0.0549732 0.741107 0.16492 0.960812L3.70441 4.50011L0.16492 8.03942C-0.0549732 8.25912 -0.0549732 8.6156 0.16492 8.83531C0.274866 8.94507 0.41896 9.00004 0.562866 9.00004C0.706772 9.00004 0.850866 8.94507 0.960812 8.83512L4.5003 5.29582L8.0396 8.83512C8.14955 8.94507 8.29364 9.00004 8.43755 9.00004C8.58146 9.00004 8.72555 8.94507 8.83549 8.83512C9.05539 8.61542 9.05539 8.25893 8.83549 8.03923L5.29619 4.50011Z" fill="white"/>
</svg>
